<svg id="Layer_1" data-name="Layer 1" xmlns="http://www.w3.org/2000/svg" viewBox="0 0 259.3 59.82"><defs><style>.cls-1{fill:#fff;}.cls-2{font-size:18px;fill:#ccc;font-family:Myriad Pro;}</style></defs><title>Wordmark_KeyClub_BW_EPS</title><path class="cls-1" d="M53.32,155.74H57v13.64l14.54-13.64h4.87L59,172l18.84,20H72.92L57,175.17v16.92H53.32V155.74Z" transform="translate(-53.32 -154.85)"/><path class="cls-1" d="M87,155.74h20.85v3.57H90.63v11.4h17v3.57h-17v14.24h17v3.57H87V155.74Z" transform="translate(-53.32 -154.85)"/><path class="cls-1" d="M118.79,155.74H123l9.33,15.09,9.21-15.09h4.17l-11.52,19v17.38h-3.65V174.71Z" transform="translate(-53.32 -154.85)"/><path class="cls-1" d="M201.73,162.46l-2.87,2.2a15.69,15.69,0,0,0-5.7-4.69,16.66,16.66,0,0,0-7.31-1.6,16.15,16.15,0,0,0-8.06,2.09,15,15,0,0,0-5.75,5.61,15.5,15.5,0,0,0-2,7.92,14.86,14.86,0,0,0,4.56,11.09,15.82,15.82,0,0,0,11.51,4.45,16.21,16.21,0,0,0,12.78-6l2.87,2.18a18.3,18.3,0,0,1-6.78,5.35,21.3,21.3,0,0,1-9.08,1.89q-9.54,0-15.05-6.34a19.13,19.13,0,0,1-4.62-12.93,18,18,0,0,1,5.6-13.42,19.31,19.31,0,0,1,14-5.44,20.69,20.69,0,0,1,9.19,2A17.83,17.83,0,0,1,201.73,162.46Z" transform="translate(-53.32 -154.85)"/><path class="cls-1" d="M216.61,155.74h3.65v32.78h14v3.57H216.61V155.74Z" transform="translate(-53.32 -154.85)"/><path class="cls-1" d="M246.42,155.74h3.65v21.94a45.14,45.14,0,0,0,.15,4.87,8,8,0,0,0,1.26,3.59,7.44,7.44,0,0,0,3,2.42,9.54,9.54,0,0,0,4.13,1,8.13,8.13,0,0,0,3.46-.77,7.7,7.7,0,0,0,2.77-2.12,8.67,8.67,0,0,0,1.63-3.29,27.2,27.2,0,0,0,.37-5.68V155.74h3.65v21.93a26.7,26.7,0,0,1-1,7.87,10.71,10.71,0,0,1-3.81,5.22,10.93,10.93,0,0,1-6.92,2.22,13.27,13.27,0,0,1-7.55-2.1,10.11,10.11,0,0,1-4.21-5.56,29.33,29.33,0,0,1-.67-7.66V155.74Z" transform="translate(-53.32 -154.85)"/><path class="cls-1" d="M285.87,155.74H293a17,17,0,0,1,6.65,1,8.14,8.14,0,0,1,3.67,3.15,8.65,8.65,0,0,1,1.35,4.72,8.47,8.47,0,0,1-1.18,4.42,8.76,8.76,0,0,1-3.48,3.23,13.52,13.52,0,0,1,4.38,2.26,9.07,9.07,0,0,1,2.39,3.14,9.38,9.38,0,0,1,.85,4,9.79,9.79,0,0,1-3.2,7.4,12,12,0,0,1-8.59,3h-10V155.74Zm3.57,3.57V171h2.07a16.15,16.15,0,0,0,5.55-.7,6,6,0,0,0,2.82-2.23,5.86,5.86,0,0,0,1-3.37,4.78,4.78,0,0,0-1.74-3.92q-1.74-1.42-5.54-1.42h-4.2Zm0,15.3v13.92h4.5a16.15,16.15,0,0,0,5.84-.78,6.62,6.62,0,0,0,3-2.43,6.34,6.34,0,0,0-.46-7.8,8.16,8.16,0,0,0-4.36-2.47,31.68,31.68,0,0,0-6.44-.44h-2Z" transform="translate(-53.32 -154.85)"/><path class="cls-1" d="M306.69,157.85a3,3,0,1,1,3,2.93A2.92,2.92,0,0,1,306.69,157.85Zm3,2.45a2.44,2.44,0,1,0-2.38-2.45A2.36,2.36,0,0,0,309.67,160.3Zm-0.62-.75h-0.51v-3.38h1.29a1,1,0,0,1,1.19,1,0.88,0.88,0,0,1-.87.93l1,1.49h-0.57l-0.89-1.46H309v1.46Zm0.61-1.9c0.43,0,.82,0,0.82-0.55s-0.38-.5-0.74-0.5H309v1h0.61Z" transform="translate(-53.32 -154.85)"/><text class="cls-2" transform="translate(4.01 55.32)">E<tspan x="8.78" y="0">dmonds</tspan><tspan x="71.1" y="0">-</tspan><tspan x="76.43" y="0">W</tspan><tspan x="91.06" y="0">ood</tspan><tspan x="120.98" y="0">w</tspan><tspan x="134.15" y="0">a</tspan><tspan x="142.69" y="0">y </tspan><tspan x="154.98" y="0">H</tspan><tspan x="166.89" y="0">igh </tspan><tspan x="194.97" y="0">S</tspan><tspan x="203.96" y="0">chool</tspan></text></svg>