<svg version="1" xmlns="http://www.w3.org/2000/svg" width="537.333" height="537.333" viewBox="0 0 403.000000 403.000000"><path d="M177.3 2.5c-2.9.8-7.6 2.6-10.4 4.1-4.5 2.2-5.5 2.4-8 1.4-5-2.1-18.2.5-28 5.5-1.9 1-5.4 3.3-7.8 5.3-3.7 3-5.2 3.6-9.5 3.6-9.9.2-25.5 10.5-32.7 21.6-2.5 3.8-3.8 5-5.7 5-6.5 0-21.9 14.4-27.1 25.4-1.7 3.5-3.1 6.9-3.1 7.5 0 .6-1.1 1.1-2.4 1.1-3.3 0-11.6 9.3-15.6 17.3-1.6 3.4-3.8 10-4.8 14.6-1.4 6.5-2.3 8.6-3.8 9.2-2.5.9-7.6 10.3-10 18.4-1.2 4.1-1.8 9.2-1.8 16.2.1 7.4-.3 10.3-1.2 10.7-.7.3-2.2 3.5-3.3 7.2-3.5 11.1-2.6 25.2 2.2 36.5 1.4 3.3 1.4 3.8-.1 5.3-2.4 2.4-2.2 17.2.2 24.6 2.5 7.3 5.9 14 9.1 17.8 2.1 2.5 2.4 3.5 1.6 5.1-.7 1.3-.8 3.6-.1 6.9 2.2 11.8 8.7 23.3 17.6 31 3.6 3 5.2 5.1 4.9 6.2-.8 2.7 5.3 13.7 11.2 20.1 3.1 3.2 8.2 7.6 11.4 9.6 4.6 2.8 5.9 4.1 5.9 6.1 0 1.7 2.2 4.6 7.4 9.8 7.9 7.9 18 13.6 26.4 15 3.1.5 4.2 1.2 4.6 2.9 1.2 4.6 13.3 12.1 24.3 14.9 3.4.9 9.2 1.6 13.1 1.6 6 0 7 .3 7.5 1.9.6 2.6 5.2 4.8 14.4 7.2 9.2 2.3 15 2.4 25 .3 5-1 7.8-1.2 8.2-.5 1.3 2 6.5 3.1 15.5 3.1 10.2 0 16.9-1.6 25.8-6 4.8-2.5 5.8-2.7 6.8-1.4 4 4.7 26.8-2.3 38.2-11.8 4.1-3.4 4.9-3.7 6.7-2.6 6.5 4 28-9.7 35.7-22.9 2.1-3.4 3.2-4.3 5.3-4.3 6.8 0 19.8-12.5 25.6-24.5 2.6-5.3 4.2-7.5 5.9-7.9 3.7-.9 11.6-10.4 15.3-18.4 1.8-3.9 3.9-10.5 4.5-14.6.9-5.7 1.6-7.5 3.2-8.2 2.7-1.2 6-6.2 8.8-13.2 1.9-4.8 2.2-7.8 2.4-18.7.1-11.1.4-13.5 2.1-16.3 4.9-8 5.6-26.2 1.5-37.6-1.9-5.2-2-6.1-.7-7.9 2-2.9 2-16.8-.1-23.8-1.8-5.9-6.2-15-9.3-18.8-1.7-2.2-1.7-2.7-.5-4.7 1.3-1.9 1.3-3 0-8.8-2.3-9.6-7-18.2-14.1-25.6-5.3-5.4-6.2-6.9-5.8-9.2 1.3-6.8-13.4-25.3-24.9-31.3-4.4-2.3-5.8-3.6-6.2-5.8-.4-1.8-3.3-5.6-7.5-9.8-7.5-7.5-17-12.8-26.7-15-4-.9-5.4-1.7-5.4-3 0-.9-1.6-3.1-3.5-4.8-7.8-6.8-22.2-12.1-33.3-12.1-4.7 0-5.8-.4-8.1-2.9-4.3-4.6-15.3-7.6-27.1-7.5-5.2.1-11.5.8-14 1.6-4.2 1.3-4.7 1.3-7.3-.6-2.3-1.7-4.6-2.1-13-2.3-6.7-.2-12 .2-15.4 1.2zm25.8 4.2c3 3-41.7 20.3-52.4 20.3-3.9 0-2.6-1.9 5.9-8.7 12.8-10.2 21.8-13.4 36.1-13 5.2.2 9.8.8 10.4 1.4zm40.7 2.6c12 4 9 5.6-16.4 9.2-12 1.7-33.9 1.7-33.9 0 0-2.3 17-10 25.5-11.5 6.6-1.3 17.2-.3 24.8 2.3zm-87.3 3.4c0 1.5-13.7 12.6-24.5 19.8-9.3 6.2-22.7 13.1-23.6 12.2-1.7-1.7 10.7-17.8 17.9-23.2 5.8-4.4 13.8-8 21.2-9.5 5.2-1.1 9-.8 9 .7zm117 5.8c9.7 2.6 23.4 11 21.2 13.1-.9.9-28.7-1.5-38-3.2-10.9-2.1-21.1-5.4-20.1-6.4 1.7-1.7 16.9-4.8 23.9-4.9 3.9-.1 9.7.6 13 1.4zM115 27.3c0 1.7-13.6 18.5-21.9 27C86.8 60.8 77 69 75.7 69c-1.5 0-.5-3.7 3.4-12.6 5.6-12.7 13-20.8 24.1-26.4 8.3-4.1 11.8-4.9 11.8-2.7zm122 2.6c55.7 12 100.6 47.4 124.5 98.3 34.5 73.7 11.8 163-54 212-23.1 17.3-48.1 27.9-77.3 32.9-11.1 1.8-15.2 2.1-32.7 1.6-15.1-.4-22.4-1-30-2.7-67.5-14.5-119.2-64.2-136-130.7-6.1-24.2-5.9-57.3.5-82.2C49.5 90.5 105.2 39.9 175.9 28.5c13.7-2.2 47.7-1.4 61.1 1.4zm69 7.8c3 .8 7.7 2.6 10.4 4 6.2 3.1 17.6 13.9 17.6 16.6 0 1.2-.5 1.7-1.4 1.4-.7-.3-4.7-1.5-8.7-2.7-15.4-4.6-36.8-14.1-42.2-18.9-1.8-1.5-1.8-1.6 0-2.2 2.7-1 18.1.1 24.3 1.8zM76 54c0 1.6-10.6 23.5-14.6 30.3C56.2 92.9 48 104 46.8 104c-1.6 0 0-14.4 2.3-21.4 2.7-8 6.2-13.8 11.8-19.5C67.9 55.9 76 51 76 54zm254.8 8.4c10.4 3 18 7.5 24.7 14.8 5.2 5.6 11.4 16.3 10.1 17.5-2.3 2.3-45.7-28.3-47.4-33.5-.6-1.8 3.4-1.5 12.6 1.2zM44 89.2c-.1 4.3-5.8 30.3-8.3 37.8-4.1 12-6.6 17.5-7.8 16.3-1.5-1.5-3.1-18.1-2.4-24.1 1.3-10.8 5.6-20 12.9-28 4.4-4.8 5.6-5.2 5.6-2zm316.3 8c8.9 5.1 16.2 12.5 20.4 20.4 3.8 7.2 6.7 18 5 19.1-1.4.9-20.1-18.5-27.8-28.9-5.3-7.2-9.9-14.7-9.9-16.2 0-1 5.1 1.3 12.3 5.6zM22.6 133.6c.3 3.1.4 13.6.1 23.3-.6 17.2-2.2 28.2-4.2 28.3-.5 0-2.5-4.2-4.4-9.3-5.4-15.2-4.5-29.9 2.6-43.2 3.5-6.3 5-6.1 5.9.9zm359.5 7.1c7 7.2 10.6 13.3 13.3 22.2 1.7 5.9 2.2 19.6.7 20.5-2.9 1.8-23.5-38.4-25.7-49.9l-.7-3.8 2.9 2c1.6 1.2 5.9 5.2 9.5 9zM13.9 186.3c3.9 14.2 5.9 24.7 6.8 35.4.5 7.1.4 8.5-.8 8.1-2.1-.7-11.3-15.8-13.3-22-3.4-9.9-3.2-23.9.4-33.3 1.1-2.8 1.2-2.9 2.5-1.2.7 1 2.7 6.9 4.4 13zm375.6-4.7c7.3 11.6 8.9 17.1 8.9 29.4 0 10.6-1.6 17.9-4.1 18.7-2.6.9-10.9-32.6-12-48.2-.8-11.9-.2-11.9 7.2.1zm.1 47.4c3.4 9.9 3.6 10.9 3.2 20.5-.3 7.1-1.1 11.6-2.7 15.7-2.7 6.9-6 11.3-7.4 9.9-1.5-1.5-2.2-40.3-.8-49 1.9-12.2 2.5-12 7.7 2.9zm-375.4.2c7.6 12.6 12.9 23.5 16.7 34.1 3.6 10.3 3.5 9.7 1.7 9.7-.7 0-5-3.5-9.4-7.8-9.5-9.4-14.5-18.6-16.3-30.3-1.1-7.2-.6-14.9.9-14.9.4 0 3.3 4.2 6.4 9.2zm363.1 33.6c1.5 7.5 1.9 20.1.7 25.7-1.7 8.5-6.1 17.6-11 22.9-4.9 5.3-7.2 6-6.5 1.8 4.1-24.1 7.6-37.8 12-47.8 2.7-6 4-6.7 4.8-2.6zM28.6 275.2C33 279.8 39 286.4 41.9 290c5.8 6.9 15.1 20.6 15.1 22.2 0 1.5-4-.2-12.6-5.3-11.8-7.1-18.8-15.2-23.2-27.2-2.2-5.8-2.9-12.7-1.3-12.7.4 0 4.4 3.7 8.7 8.2zm329.9 28.5c-1.1 11-3.3 19.3-7 25.8-4.7 8.4-18.2 21.1-20.3 19-1.7-1.7 11.7-31.1 20-43.5 6.6-10.2 8.3-10.4 7.3-1.3zM55 316.6c12.9 8.1 22.8 15.4 30 22.4 6.6 6.4 5.7 7.1-5.7 4-11.1-3.1-17.5-6.4-24-12.3-8.8-8.1-16.2-20.7-12-20.7.6 0 5.9 3 11.7 6.6zm273 25.5c-5.9 16.2-13.4 25.2-26.5 31.5-12.1 5.9-12.3 4.7-1.6-9.8 11.7-15.6 29-33.2 30.9-31.3.3.2-1 4.6-2.8 9.6zm-240 7.1c12.9 4.4 32.8 13.8 35.5 16.8 1.8 2 1.7 2-7.6 2-15.3 0-26.4-3.6-35.8-11.5-4.7-3.8-10.1-10.2-10.1-11.7 0-1.3 4.5-.2 18 4.4zm207.9 11c-2.8 5.3-10.4 15.1-14.7 18.9-6.2 5.5-16.6 10.4-25.3 12-10.2 1.8-10.7.4-2.2-6.6 10.5-8.7 21.4-16.2 31.6-21.6 10.5-5.6 12.4-6 10.6-2.7zM124.6 372c21 1.7 44 6.8 41.6 9.2-1.7 1.7-17.1 4.7-24.1 4.8-10.8 0-23.5-4.3-31-10.5-3-2.6-3.3-4.5-.7-4.5.7 0 7.1.5 14.2 1zm124.9 10.5c-12 11-22.6 15.5-37 15.5-8.5 0-12.5-.7-12.5-2.1 0-3.5 44-19.8 53.5-19.8 2.9 0 2.8.2-4 6.4zm-38 1.4c.3.6-3.9 3.2-9.3 5.9-11.5 5.7-20.9 7.8-30.5 6.7-7.1-.8-17.9-4.4-18.4-6.2-.5-1.5 5-3 20.1-5.3 12.9-1.9 37.1-2.6 38.1-1.1z"/><path d="M184.5 29.1C114.4 36.5 55 85.7 35.5 152.6c-8.9 30.4-8.8 66.4 0 96.9 13.2 45.4 46.2 84.5 89.4 106.1 85 42.2 189 7.9 232-76.4 28.6-56.3 24.7-121.8-10.4-174.2-35.4-52.8-98.8-82.5-162-75.9zm45.7 15.5c1.5.8 3.6 1.4 4.7 1.4 3.6 0 4.3 8.2.9 10.4-1.4.8-2.5.2-6.1-3.7-2.4-2.6-5.2-4.7-6.4-4.7-6 0-7.9 10.7-2.8 16 2.2 2.3 3.8 3 6.8 3 2.1 0 4.7-.5 5.8-1 1.7-1 1.9-.7 1.9 1.9 0 3.6-1.9 4.9-8.4 5.7-6.5.9-11.1-.3-15-3.9-8.3-7.9-5.9-20.9 4.8-25.8 4.4-2 8.9-1.7 13.8.7zM171 46.4c0 .7-.7 1.9-1.5 2.6-.8.6-2.3 3.6-3.4 6.5-1.9 5-1.9 5.7-.5 10.4.8 2.9 2.3 5.5 3.4 6.1 4.4 2.3 1.9 4.5-7.9 7-5.1 1.3-6.9.3-5-2.8 1-1.6 1-2.9-.1-6.6-1.4-5.1-6-9.7-11.8-11.8-4.7-1.8-3.7-4 2.8-6.1 7-2.2 9.5-1.9 9.6 1.2.1 2.1 1.8 4 3.6 4.1 1.3 0 2-4.2.9-5.3-1.9-1.9-1.2-3.8 2.2-5.2 4.1-1.8 7.7-1.9 7.7-.1zm89.7 6.7c4.8 2.3 5.5 4.5 1.9 5.9-1.7.6-3.2 3-5.5 8.4-1.7 4.1-3.1 8.3-3.1 9.4 0 3.4 5.4 4.3 9.5 1.6 2.3-1.5 2.5-1.5 3.1 0 .8 2-1.9 6.2-4.5 7.1-1.8.5-8.8-2.2-20-7.8-3.4-1.7-3.6-3.2-.7-4.5 2.6-1.1 6.3-7.5 8.6-14.5.9-2.9.9-4.1 0-5.2-.6-.8-.9-1.9-.5-2.6.9-1.4 5.6-.5 11.2 2.2zM130.4 63.2c2.3 3.3 2 3.8-2.4 3.8-4.8 0-10 2.4-10 4.6 0 .9.9 2.9 2.1 4.5 1.7 2.4 2.4 2.7 4 1.8 1.6-.8 1.9-1.7 1.4-4-.7-3.1-.3-3.4 2.4-2 1.9 1.1 5.8 8.8 4.8 9.7-.3.3-1.5 0-2.7-.6-1.2-.6-2.8-.9-3.6-.6-3.4 1.3.2 8.6 4.3 8.6 3.5 0 8.3-5.1 8.3-8.9 0-5.5 4.1-2.7 4.3 3 .2 2.9-.4 3.5-11.2 10-6.3 3.8-11.6 6.9-11.8 6.9-.2 0-.3-1.6-.3-3.7 0-5.7-8.3-18.9-12.2-19.5-4.1-.6-2.8-2.4 4.9-7.1 4.3-2.6 8.9-5.6 10.3-6.7 3.3-2.6 5.5-2.5 7.4.2zm160.4 6.5c3.2 2.4 4 5.7 1.4 5.9-.6.1-1.6.2-2.1.3-2 .2-9.2 11.6-8.9 14 .4 3.2 4.9 6.5 8 5.8 3-.8 10.8-11.7 10.8-15.2 0-3.1 1.7-3.2 6.1-.2 3.9 2.6 4.4 5.1 1.2 5.5-1.3.2-4.3 3-7.5 7-7.1 9-7.6 9.3-12.6 8.9-7.5-.8-16.2-8.4-16.2-14.4 0-1.2 2.2-5.4 5-9.5 2.7-4 5-8.2 5-9.4 0-1.1.3-2.3.6-2.7.9-.9 5.4 1.1 9.2 4zM225 85.5c31.1 6.5 57.8 24.6 75.3 51.1 11.1 16.8 15.6 28.7 17.8 47.7 6.2 53.7-22.8 103-72.7 123.3-12.3 4.9-23.7 7.3-38.4 8-68.8 3.2-125.4-53.8-121.7-122.4 1.7-31 13.2-56.3 34.7-76.6 19.7-18.5 43.1-29.6 70-33 6.6-.8 27.5.3 35 1.9zM93 88.8c0 .5-.7 1.7-1.5 2.8-1.7 2.3-1.9 6.7-.4 9.5 1 1.9 1.9 2 12.2 1.8 12.8-.3 13.4.2 8 6.4-3.2 3.6-3.4 3.7-10.3 3.7-6.3 0-7.1.2-6.8 1.7.2 1 1.8 2.2 3.6 2.8 1.7.5 3.2 1.5 3.2 2.2 0 1.5-7.8 10.3-9.2 10.3-.4 0-1.3-1.2-1.9-2.7-1.3-3.5-3.2-5.6-9.2-10.4-2.7-2.2-6-3.9-7.3-3.9-3.7 0-3-3.6 1.5-8.1 2.1-2.2 4.3-3.9 4.7-3.9.5 0 1.6 1.5 2.4 3.3.8 1.7 2.3 3.3 3.3 3.5 2.8.5 2.3-5.3-.8-8-2.7-2.4-2.4-3.5 2.4-8.6 2.7-3 6.1-4.3 6.1-2.4zM325.9 99c8.5 9.7 9.5 12.4 5.7 15.7-1.5 1.3-3.9 2.3-5.3 2.3-2.3 0-2.5.2-1.9 3.5.9 4.8-2.6 8.5-8.1 8.5-3.4 0-4.5-.8-12-8.8-4.5-4.8-8.3-9.5-8.3-10.5s.4-1.5 1-1.2c3 1.9 19-10.8 19-15.1 0-4.1 2.5-2.7 9.9 5.6zM47.2 180.7c1.5 1.4 3.8 1.7 11.1 1.7 5.1 0 10.1-.2 11.2-.5 1.8-.4 2 .2 2.3 6.4.2 5.4 0 6.8-1.3 7.3-.9.4-2.3 0-3.3-.9-2.7-2.3-17.2-3.3-20.9-1.3-1.7.8-3.3 1.2-3.7.9-.3-.4-.6-3.2-.6-6.4 0-8.9 1.3-10.7 5.2-7.2zm311.7.4c1.7.6 3.1 1.4 3.1 1.7 0 .4.2 6 .5 12.4.6 12.6.4 13.1-4 10.2-3.7-2.4-20.1-1.1-21.6 1.8-1.9 3.6-4.2-.2-4.7-7.7-.4-5.4-.1-6.6 1.2-7.1 1-.4 2.2 0 3 1.1 1.2 1.6 2.3 1.7 10.6 1.1 5.2-.4 9.7-.9 10.2-1.2 1.9-1.2.7-5.6-2.2-8.3-2.3-2.1-2.7-3-1.8-3.9 1.5-1.5 1.7-1.5 5.7-.1zM69.8 204.2c.6.7 1.3 3 1.7 5 .6 3.3.1 4.7-4 11.7-2.5 4.4-4.4 8.5-4 9.1 1.1 1.9 5.6 1 7.9-1.5 2.1-2.2 2.5-2.3 3.6-1 .7.8 1.5 3.5 1.8 6 .4 3.6.2 4.5-1.1 4.5-.9 0-1.9-.5-2.2-1-.9-1.4-6.8-1.2-14.5.5-8.8 1.9-12 1.9-12-.1 0-.9 2.3-5.6 5.1-10.5 5.6-9.6 5.8-12.4 1.2-11.3-3.8.9-6.3 2.3-6.3 3.4 0 .6-.9 1-2 1-1.4 0-2.2-1-3-3.9-.9-3.4-.6-7.1.6-7.1.2 0 1.3.6 2.4 1.2 3.1 2 17.9-1.3 20.5-4.6 2.3-2.9 2.9-3.1 4.3-1.4zm291.7 17.2c-1.2 5.7-2.5 10.1-3.5 11.6-.8 1.3-1.1 1.2-2.3-.4-2.1-2.9-4.3-1.3-5.6 4-1.4 5.5-.3 7.6 2.8 5.7 1-.7 2.2-.9 2.5-.6 1.8 1.8-.7 11.3-3 11.3-.8 0-1.4-.6-1.4-1.3 0-2.9-12.7-12.9-20.3-16.1-3.3-1.3-3.8-1.9-3.5-4.3.5-4.2 5.3-6.8 18-9.4 6.5-1.3 11.9-3 12.8-3.9 2.2-2.5 4.3-.5 3.5 3.4zM79.1 246c1 .6 1.9 1.6 1.9 2.3 0 .7 2.3 5.2 5 10.1 4.8 8.5 5 9 3.5 11.3-2.1 3.2-5.6 4.5-7.3 2.8-1.1-1-1.1-1.8-.3-3.3 1.6-3 1.3-5.2-.6-5.2-1 0-4.9 1.7-8.8 3.8-5.7 3.1-7.1 4.3-7.3 6.5-.2 1.5-1 2.7-1.8 2.7-2.1 0-8.4-10.9-8.4-14.6 0-1.1.9-1.3 3.8-.9 2.9.5 5.2-.1 11-2.9 3.9-1.9 7.2-4.1 7.2-4.9 0-.8-1.5-1.8-3.2-2.3-4-1.2-4.9-4-1.6-5.3 3.1-1.3 4.6-1.3 6.9-.1zm249 6.8c.7 2 3.9 4.8 10.6 9.3 5.3 3.5 9.8 6.9 10 7.5.4 1.3-3 2.9-10.9 4.9-8.1 2.1-11.9 4.1-11.2 5.9.7 1.7 5.6 3.9 9.2 4 3.1.1 3.2 2.5.3 6.6-2.4 3.3-4.4 3.6-5.6.8-.6-1.3-3.6-4.1-6.8-6.3-4.6-3.1-6.8-4-10.5-4.1-5.3-.1-5.6-1.2-2.3-6.9 1.4-2.4 3.2-3.4 10.9-5.7 9.8-3 11.1-4.5 6.8-7.3-1.5-1-3.3-1.4-5-.9-2 .5-2.6.2-2.6-1.1 0-1.9 1.6-5.3 3.8-7.8 2-2.2 2.1-2.2 3.3 1.1zm-227.4 28.9c2.6 3.2 6.5 7.6 8.7 9.8 3.6 3.7 3.8 4.1 2.4 6.5-2 3.6-4.8 3.9-4.8.5 0-2.9-2.1-7.5-4.4-9.4-1.6-1.3-4.1-.5-7 2.5-2.6 2.5-.4 5.5 3.4 4.7 3.2-.6 3.5-.2 2 2.8-1 1.8-5.9 4.9-7.9 4.9-.5 0-.7-1.4-.4-3.4.4-2.3.1-3.5-.9-3.9-1.5-.5-7.8 3.8-7.8 5.3 0 .5 1.4 2.5 3.1 4.5 2.6 2.9 3.8 3.5 7 3.5 2.1 0 3.9.3 3.9.7-.1 1.9-1.9 3.4-5.1 4.3-2.9.9-3.6.7-4.9-.9-.8-1-4.6-5.8-8.4-10.5-3.8-4.8-6.7-8.8-6.5-9 .2-.1 2.2-.8 4.5-1.4C83 291.6 94 281.7 94 278.4c0-3.7 1.4-2.9 6.7 3.3zm210.1 9.7c3.9 2 7.1 5.8 8.2 9.6 2.6 9.2-6.9 21.1-16.7 21-4.7-.1-10.8-3.5-13.2-7.4-5-8-1.7-18.4 7.4-23.4 2.8-1.6 11.1-1.5 14.3.2zm-185.1 12.9c1.5 1.3 5.3 4 8.4 5.9 6.8 4.3 9.1 8.6 6.8 12.7-.8 1.4-2.8 3-4.5 3.5-2.8.9-3.1 1.3-3.2 5.5-.1 6.4-.8 12-1.5 12.7-.9 1-7.7-2.8-8.9-4.9-.7-1.5-.7-3.4.2-7.2 1.4-5.7 1.1-8.6-.7-9.2-1.6-.6-5.3 5.5-5.3 8.4 0 1.3-.6 2.3-1.3 2.3-2.5 0-12.9-8.4-11.6-9.3.2-.2 1.6-.8 3.1-1.4 3.6-1.6 12.8-14.8 12.8-18.5 0-3.5 1.8-3.6 5.7-.5zm149.3 9.8c0 2.8 4.1 11.8 7.4 16.1.7 1 2.5 2.2 3.9 2.7 3.6 1.4 2.7 3.1-3.6 6.9-6.8 4.1-9.1 4.2-8.2.4.9-4.3-7.7-19.2-11.2-19.2-.7 0-1.3-.9-1.3-2 0-1.3 1.7-2.9 5.3-5 6.6-3.8 7.7-3.8 7.7.1zm-114.6 9.3c2.6 1.1 4.3 3.1 7.5 9 2.9 5.2 4.8 7.6 6.1 7.6 2.3 0 3.6-5 2-8-1.5-2.8.5-3.5 5.9-2 5.4 1.4 5.9 2.7 2.3 5.8-2.2 1.9-4 5.3-6.2 11.6-1.7 5-3.6 9.6-4.2 10.3-1.6 1.9-3.3.2-7.9-8.2-2.2-4-4.8-8-5.8-8.9-1.7-1.5-1.9-1.5-3.2 0-.8 1-1.4 3.8-1.3 6.6 0 4.8 0 4.8-3.2 4.8-1.7 0-4.2-.8-5.5-1.9l-2.3-1.8 2.6-2.4c4.6-4.2 8.8-19.6 5.8-21.4-1.5-.9-.2-2.5 2.1-2.5 1.1 0 3.5.6 5.3 1.4zm92.3.8c2.4 2.3 3.1 6.2 1.2 7.4-.6.3-2.6-.2-4.4-1.2-1.9-1-3.7-1.5-4.1-1.2-.7.8 1.2 9.7 3.4 15.1.9 2.4 2.4 4.2 3.9 4.8 2 .7 2.3 1.2 1.3 2.3-2.3 2.9-14.5 5.8-16.3 3.9-.4-.3-.1-1.6.7-2.8 1-1.6 1.2-3.3.6-6.6-2.3-11.9-5.7-16.2-7.9-9.9-1.5 4.5-4.5 3.7-4.9-1.3-.4-4.3 1.1-6.7 4.2-6.8 1.1 0 5.7-1.3 10.1-2.8 10.1-3.5 9.5-3.5 12.2-.9zm-43.3 9.1c1.4 1.8 4.6 7.7 7.1 13.2 2.5 5.4 5.3 10.4 6.2 11 3 2.2.4 3.5-7.2 3.5-7.9 0-9.3-.7-7.3-4 1.7-2.8-.2-4-6.4-4-5.4 0-6.7 1.3-4.2 4.1 1.6 1.7 1.6 2.2.4 2.9-2 1.3-7.7 1.2-10.1 0-1.8-1-1.8-1.3 1.4-4.3 3.2-3.1 9.7-16.6 9.7-20.2 0-6.2 6.3-7.5 10.4-2.2z"/><path d="M184.2 86.5c-8.4 1.9-14.4 4.9-18.2 9.1l-3 3.5v72.1l5.3-4.2c2.8-2.3 10.7-8.6 17.4-13.9l12.3-9.6V125.2l-4.7-.7c-19.7-2.9-24.6-16.5-8.5-23.8 6.3-2.9 23.3-3.1 30.3-.4 15 5.8 13.5 18.1-2.8 23l-7.3 2.1v5.8c0 3.2.2 5.8.5 5.8 1.2 0 34.2-26.9 36.8-29.9 2.9-3.4 4.1-6.8 3.5-9.7-1.7-8.7-40.3-15.5-61.6-10.9z"/><path d="M193 105c-10.2 2.2-13.7 5.3-9.8 9 5.1 4.7 21.7 5.9 30.1 2.2 5.4-2.4 6.7-4.5 4.3-7.1-3.2-3.6-16.4-5.8-24.6-4.1zM123.2 116.3c-1.3.7-4.8 4.2-7.9 7.8-26.7 30.5-34.9 70.4-22.8 110.6 6.6 21.8 22.6 44 33.7 46.8 2.1.5 3.3.1 5.1-1.7 2.4-2.4 2.5-3.2 3.2-21.4 1-24.9-.2-131.7-1.5-136.6-1-3.5-4.2-6.8-6.5-6.8-.5.1-2 .6-3.3 1.3zM273.1 118.7c-3.1 1.3-45.6 36.7-45.3 37.7.2.6 11.4 26 24.9 56.4 17.4 39.1 25.3 55.9 27.1 57.2 1.4 1.2 4 2 6 2 3.1 0 4.4-.8 8.7-5.3 8.6-9.2 16.1-25.9 20.2-45 1.3-6 1.8-12.6 1.7-24.7 0-14.6-.3-17.6-2.7-26.3-5-18.7-19.1-43-28.5-49.2-4-2.6-9.6-3.9-12.1-2.8zM179.8 193.6L163 207v36.3c0 29.5.3 37.4 1.5 42.2 3.2 12.2 8.7 20.1 17.6 25 5.4 3 5.5 3 20.9 2.9 35.2-.1 49.9-8.1 48.8-26.3-.4-6.1-2.1-10.3-21.7-53.6-11.7-25.9-22.2-48.6-23.2-50.5-1.8-3.4-1.8-2.8-1.9 40.7V268h14v4c0 3.8-.2 4-3 4-2.9 0-3 .1-3 5s.1 5 3 5c2.8 0 3 .3 3 3.5v3.5h-7c-6.7 0-7 .1-7 2.4s-2.3 5.6-3.9 5.6c-3 0-3.1-3-3.1-61.7 0-32.6-.3-59.3-.7-59.2-.5 0-8.3 6.1-17.5 13.5zM319.3 105.4c-2.4 2-2.5 2.6-1.4 4 1.8 2.2 3.4 2 5.9-.7 4.8-5.1.9-7.9-4.5-3.3zM310.6 113.9c-2.9 3.1-3.3 5.6-1 6.5 3.2 1.2 8.1-3.5 6.8-6.8-1-2.6-3.1-2.5-5.8.3zM340.3 232.2c-2.9 1.4-2.9 2.2.3 4.7 3.3 2.6 5.4 1.3 5.4-3 0-3.2-1.7-3.6-5.7-1.7zM294.7 298.7c-2 1.9-.5 6.2 3.3 9.7 4.2 3.7 7.3 5 11.1 4.4 5.7-.8 2-9.6-5.5-13.2-3.5-1.7-7.8-2.1-8.9-.9zM126.1 315.5c-2.7 4.1-1.9 6.2 2.2 5.2 2.9-.8 4.9-4.6 3.5-7-1.4-2.6-3.1-2-5.7 1.8zM201.1 342.3c-.6.8-1.2 2.4-1.3 3.8-.3 2 .2 2.5 2.6 2.7 4.1.5 5.1-1 3.2-4.7-1.8-3.4-2.8-3.8-4.5-1.8z"/></svg>