<svg id="Layer_1" data-name="Layer 1" xmlns="http://www.w3.org/2000/svg" viewBox="0 0 172.33 171.65"><defs><style>.cls-1{fill:#fff;}</style></defs><title>logo_KeyClub_seal_reverse_JPG</title><path class="cls-1" d="M228.61,253.85a4.13,4.13,0,1,0,4.2,4.12A4.14,4.14,0,0,0,228.61,253.85Zm0,7.57A3.44,3.44,0,1,1,232,258,3.35,3.35,0,0,1,228.61,261.42Z" transform="translate(-94.28 -93.41)"/><path class="cls-1" d="M230.53,256.95c0-.94-0.56-1.35-1.69-1.35H227v4.76h0.73v-2.07h0.84l1.26,2.07h0.81l-1.36-2.1A1.25,1.25,0,0,0,230.53,256.95Zm-2.79.73v-1.47h1c0.5,0,1,.11,1,0.7s-0.55.77-1.16,0.77h-0.87Z" transform="translate(-94.28 -93.41)"/><path class="cls-1" d="M252.24,132.16h0l0,0.05Z" transform="translate(-94.28 -93.41)"/><path class="cls-1" d="M228.54,143.78q1.63-1.45.47-2.73a0.63,0.63,0,0,0-.55-0.26,1.31,1.31,0,0,0-.57.32l-0.34.33-0.37.36a6,6,0,0,0-1,1,0.77,0.77,0,0,0,.09,1Q227.27,144.93,228.54,143.78Z" transform="translate(-94.28 -93.41)"/><path class="cls-1" d="M224.12,221.38q-2.29-1.32-3.5-.39a1.4,1.4,0,0,0-.54,1.19,2.43,2.43,0,0,0,.59,1.5,9.61,9.61,0,0,0,2.92,2.35q2.33,1.32,3.41.48a1.53,1.53,0,0,0,.63-1.18,2.23,2.23,0,0,0-.56-1.47A10.12,10.12,0,0,0,224.12,221.38Z" transform="translate(-94.28 -93.41)"/><path class="cls-1" d="M232.63,139.5q1.46-1.31.53-2.33a0.49,0.49,0,0,0-.57-0.13,2.18,2.18,0,0,0-.7.44l-0.29.25-0.17.2-0.32.24-0.28.23a2,2,0,0,0-.61.76,0.49,0.49,0,0,0,.1.5Q231.28,140.72,232.63,139.5Z" transform="translate(-94.28 -93.41)"/><path class="cls-1" d="M242.06,192.06a3.67,3.67,0,0,0-1.62.29,1.93,1.93,0,0,0-1.25.68,1.64,1.64,0,0,0,.86,1,4.38,4.38,0,0,0,1.32.79c0.1,0,.22-0.1.36-0.39a5.34,5.34,0,0,0,.33-1,6.2,6.2,0,0,0,.17-1C242.24,192.23,242.18,192.09,242.06,192.06Z" transform="translate(-94.28 -93.41)"/><path class="cls-1" d="M264.26,173.07l0.33-.09,0.4-.44a2.34,2.34,0,0,0,.71-1.39,23.12,23.12,0,0,0-5.56-18.06l0.14-.07,0.36-.19,0.28-.52a2.32,2.32,0,0,0,.36-1.51,23.21,23.21,0,0,0-9.54-16.11l0.1-.08,0.3-.28,0.15-.58a3,3,0,0,0,.12-0.78,2,2,0,0,0-.16-0.8A23.27,23.27,0,0,0,239,118.9l0.09-.14v-0.59a2.38,2.38,0,0,0-.4-1.53,23.35,23.35,0,0,0-16.62-9.9l0-.09,0.14-.39-0.14-.58a2.36,2.36,0,0,0-.77-1.38,23.38,23.38,0,0,0-17.76-5.6h0l0-.41-0.28-.53a2.34,2.34,0,0,0-1.08-1.15,23.41,23.41,0,0,0-19.18-1l0-.3-0.4-.45a2.33,2.33,0,0,0-1.31-.85A23.43,23.43,0,0,0,163,97.31L162.87,97l-0.49-.33a2.32,2.32,0,0,0-1.49-.5A23.34,23.34,0,0,0,144.77,103l-0.16-.21-0.55-.21a2.34,2.34,0,0,0-1.56-.15,23.28,23.28,0,0,0-15.05,12l-0.23-.19-0.59-.08a2.34,2.34,0,0,0-1.55.21,23.22,23.22,0,0,0-11.66,14.36h0l-0.37-.17-0.49.06h-0.09a2.34,2.34,0,0,0-1.45.6,23.13,23.13,0,0,0-7.59,16.62l-0.26-.06-0.47.17-0.09,0a2.33,2.33,0,0,0-1.28.9A23.1,23.1,0,0,0,97.6,165H97.41l-0.5.33a2.34,2.34,0,0,0-1,1.17,23.11,23.11,0,0,0,1,19.15l-0.3.08-0.4.44a2.33,2.33,0,0,0-.71,1.4A23.12,23.12,0,0,0,101.37,206l-0.2.11-0.28.51a2.34,2.34,0,0,0-.36,1.54,23.18,23.18,0,0,0,10.14,16.5h0l-0.15.59a2.33,2.33,0,0,0,0,1.57,23.21,23.21,0,0,0,12.25,12.82l-0.16.25v0.59A2.34,2.34,0,0,0,123,242a23.31,23.31,0,0,0,16,9.8l-0.1.29,0.14,0.58a2.35,2.35,0,0,0,.77,1.38A23.38,23.38,0,0,0,158,259.63v0.09l0,0.42,0.28,0.53a2.34,2.34,0,0,0,1.07,1.14,23.45,23.45,0,0,0,18.9,1l0.05,0.3,0.39,0.44a2.34,2.34,0,0,0,1.32.86,23.4,23.4,0,0,0,18.57-3.51l0,0.11,0.16,0.38,0.51,0.34a2.36,2.36,0,0,0,1.48.49,23.35,23.35,0,0,0,16.8-7.6,2.6,2.6,0,0,0,.37.63l0.26,0.32,0.56,0.19a2.32,2.32,0,0,0,1.56.1,23.29,23.29,0,0,0,14.59-12.48l0.17,0.14,0.33,0.25,0.6,0a2.33,2.33,0,0,0,1.53-.27,23.19,23.19,0,0,0,10.72-13.65h0l0.37,0.17,0.58-.08a2.3,2.3,0,0,0,1.44-.61A23.13,23.13,0,0,0,258,212.65l0.07,0,0.4,0.08,0.56-.22a2.35,2.35,0,0,0,1.26-.94,23.08,23.08,0,0,0,3.14-18.44h0l0.5-.33a2.34,2.34,0,0,0,1-1.17A23.08,23.08,0,0,0,264.26,173.07Zm0-2.06a1.5,1.5,0,0,1-.47.71c-1.11.29-1.2-1-1.8-1.55-4-6.46-7.77-13.12-9.74-20.69,0.14-.37-0.1-0.95.43-1,2.15,0.91,3.4,2.92,5.24,4.34A21.71,21.71,0,0,1,264.28,171Zm-4.41-20a1.47,1.47,0,0,1-.29.8c-1,.56-1.4-0.7-2.11-1.07-5.39-5.34-10.68-10.9-14.41-17.79,0-.4-0.33-0.9.18-1.08,2.3,0.37,4,2,6.13,3A21.79,21.79,0,0,1,259.88,151Zm-8.93-18.26a1.42,1.42,0,0,1-.07.84c-0.84.78-1.53-.33-2.31-0.53-6.55-3.85-13.06-7.94-18.38-13.7-0.05-.4-0.54-0.79-0.09-1.09,2.32-.21,4.38,1,6.68,1.38A21.84,21.84,0,0,1,250.94,132.73ZM237.5,117.49a1.45,1.45,0,0,1,.12.84c-0.63,1-1.56,0-2.37,0-7.27-2.22-14.56-4.7-21.08-9.07-0.15-.37-0.71-0.64-0.35-1,2.21-.74,4.49,0,6.82-0.2A21.92,21.92,0,0,1,237.5,117.49ZM220.4,105.42a1.45,1.45,0,0,1,.33.78c-0.37,1.08-1.51.42-2.29,0.61-7.6-.37-15.27-1-22.68-3.6-0.23-.33-0.85-0.45-0.59-0.92,2-1.26,4.34-1.15,6.55-1.87A22,22,0,0,1,220.4,105.42ZM201.62,97.9a1.44,1.44,0,0,1,.51.68c-0.1,1.14-1.37.76-2.08,1.14-7.47,1.45-15.06,2.69-22.89,1.91-0.31-.26-0.93-0.23-0.8-0.75,1.6-1.69,3.94-2.15,5.91-3.38A22,22,0,0,1,201.62,97.9ZM181,95.42a1.47,1.47,0,0,1,.66.54c0.18,1.13-1.14,1.07-1.74,1.61-6.89,3.22-14,6.26-21.74,7.39-0.36-.18-1,0-1-0.54,1.14-2,3.29-3,4.91-4.71A22,22,0,0,1,181,95.42Zm-20,2.11a1.46,1.46,0,0,1,.77.36c0.45,1.05-.84,1.32-1.29,2-5.87,4.81-12,9.49-19.23,12.5-0.39-.09-0.93.24-1.06-0.28,0.6-2.24,2.44-3.75,3.59-5.77A21.93,21.93,0,0,1,161,97.54Zm-32.83,18.7a21.86,21.86,0,0,1,14.75-12.45,1.48,1.48,0,0,1,.83.17c0.69,0.92-.51,1.47-0.8,2.22-4.62,6-9.48,11.95-15.87,16.52-0.4,0-.85.44-1.1,0C126,120.34,127.47,118.46,128.13,116.24Zm-13.81,14.84a21.79,21.79,0,0,1,11.45-15.52,1.51,1.51,0,0,1,.85,0c0.88,0.74-.16,1.55-0.26,2.35-3.1,6.91-6.44,13.81-11.58,19.73-0.39.1-.73,0.62-1.08,0.22C113.23,135.57,114.19,133.4,114.32,131.08Zm-2.33-.87a1.47,1.47,0,0,1,.81-0.24c1,0.49.25,1.54,0.36,2.33-1.22,7.47-2.68,15-6.13,22-0.35.19-.54,0.78-1,0.48-1-2.08-.66-4.42-1.13-6.69A21.71,21.71,0,0,1,112,130.21Zm-9.49,17.42a1.46,1.46,0,0,1,.74-0.41c1.12,0.26.58,1.45,0.86,2.2,0.44,7.55.64,15.2-1.2,22.82-0.3.26-.36,0.88-0.86,0.68-1.46-1.8-1.61-4.17-2.56-6.29A21.68,21.68,0,0,1,102.51,147.63ZM97.22,167a1.47,1.47,0,0,1,.63-0.57c1.15,0,.91,1.27,1.35,1.94,2.23,7.24,4.26,14.62,4.29,22.44-0.23.33-.14,0.94-0.67,0.87-1.86-1.4-2.56-3.67-4-5.5A21.68,21.68,0,0,1,97.22,167Zm-0.3,20.72a1.48,1.48,0,0,1,.46-0.71c1.11-.3,1.19,1,1.79,1.54,4,6.46,7.76,13.12,9.73,20.7-0.14.38,0.1,0.95-.43,1-2.14-.9-3.39-2.93-5.23-4.35A21.69,21.69,0,0,1,96.91,187.72Zm5,20.25a1.45,1.45,0,0,1,.28-0.8c1-.55,1.4.7,2.11,1.07,5.4,5.33,10.69,10.89,14.43,17.78,0,0.4.33,0.89-.18,1.08-2.3-.37-4-2-6.13-3A21.77,21.77,0,0,1,101.94,208Zm9.93,18.32a1.48,1.48,0,0,1,.07-0.84c0.84-.78,1.53.34,2.32,0.52,6.56,3.85,13.06,7.94,18.39,13.69,0.05,0.39.54,0.79,0.09,1.09-2.32.21-4.38-1-6.68-1.38A21.86,21.86,0,0,1,111.87,226.29Zm12.32,14.9a1.44,1.44,0,0,1-.12-0.84c0.63-1,1.56,0,2.37,0,7.27,2.22,14.56,4.69,21.09,9.05,0.15,0.37.71,0.64,0.35,1-2.21.74-4.49,0.05-6.82,0.21A21.91,21.91,0,0,1,124.18,241.19ZM140.7,253a1.46,1.46,0,0,1-.33-0.78c0.37-1.08,1.51-.41,2.29-0.61,7.6,0.36,15.27,1,22.69,3.59,0.23,0.32.85,0.45,0.59,0.92-2,1.26-4.34,1.15-6.55,1.87A22,22,0,0,1,140.7,253Zm19.16,7.54a1.48,1.48,0,0,1-.51-0.68c0.1-1.14,1.36-.76,2.07-1.15,7.46-1.48,15.06-2.74,22.89-2,0.31,0.26.93,0.23,0.8,0.75-1.59,1.7-3.93,2.16-5.9,3.4A22,22,0,0,1,159.87,260.52Zm39.19-1.77a22,22,0,0,1-18.86,4.3,1.44,1.44,0,0,1-.66-0.54c-0.18-1.13,1.14-1.07,1.73-1.61,6.89-3.22,13.95-6.26,21.74-7.4,0.36,0.18,1,0,1,.54C202.83,256.06,200.67,257.08,199.06,258.75ZM217.81,252a21.94,21.94,0,0,1-17.21,8.8,1.5,1.5,0,0,1-.77-0.36c-0.45-1.05.84-1.32,1.28-2,5.87-4.81,12-9.5,19.22-12.52,0.39,0.09.93-.23,1.06,0.29C220.8,248.5,219,250,217.81,252Zm16.27-10.49a21.86,21.86,0,0,1-14.28,13,1.49,1.49,0,0,1-.84-0.15c-0.72-.89.46-1.49,0.71-2.24,4.39-6.18,9-12.29,15.24-17.1,0.4,0,.83-0.47,1.1,0C236,237.36,234.66,239.3,234.08,241.54Zm13.38-15.17a21.76,21.76,0,0,1-10.77,16,1.5,1.5,0,0,1-.85.06c-0.91-.7.09-1.55,0.15-2.36,2.79-7,5.84-14.07,10.72-20.21,0.39-.12.7-0.65,1.07-0.26C248.36,221.86,247.49,224.06,247.46,226.38Zm-66.69,27.43c-41.5,0-75.26-33.58-75.26-74.85s33.76-74.85,75.26-74.85S256,137.68,256,179,222.28,253.81,180.78,253.81Zm68.8-25.4a1.45,1.45,0,0,1-.81.24c-1-.48-0.26-1.54-0.37-2.33,1.16-7.48,2.58-15,6-22.06,0.35-.2.53-0.79,1-0.49,1.05,2.07.69,4.41,1.18,6.68A21.71,21.71,0,0,1,249.58,228.41Zm9.53-17.55a1.47,1.47,0,0,1-.73.43c-1.13-.22-0.62-1.43-0.92-2.17-0.66-7.54-1.08-15.18.54-22.84,0.29-.27.33-0.89,0.84-0.71,1.52,1.76,1.73,4.12,2.75,6.21A21.69,21.69,0,0,1,259.11,210.85Zm4.57-19.68a1.48,1.48,0,0,1-.63.57c-1.15,0-.91-1.27-1.36-1.93-2.23-7.23-4.27-14.62-4.3-22.45,0.23-.33.14-0.94,0.67-0.87,1.86,1.4,2.56,3.67,4,5.5A21.68,21.68,0,0,1,263.69,191.17Z" transform="translate(-94.28 -93.41)"/><path class="cls-1" d="M136.68,200a49,49,0,0,0,5.82,9c2.15,2.38,4.32,3.9,6.19,4.2a2.11,2.11,0,0,0,1.61-.52c0.78-.66,1.19-1.91,1.19-3.63,0.13-2.61.17-11.13,0.17-21,0-17.47-.13-39.13-0.13-39.45a15.34,15.34,0,0,0-.79-4.1,2.88,2.88,0,0,0-1.87-2,3.44,3.44,0,0,0-2.47.83,48.63,48.63,0,0,0-14.65,30.77A53.1,53.1,0,0,0,136.68,200Z" transform="translate(-94.28 -93.41)"/><path class="cls-1" d="M180.78,105.28c-40.85,0-74.09,33.05-74.09,73.68s33.24,73.68,74.09,73.68,74.09-33.05,74.09-73.68S221.63,105.28,180.78,105.28ZM229,133.92a1,1,0,0,0,.27-1.25,0.58,0.58,0,0,1-.15-0.52,1.1,1.1,0,0,1,.31-0.49,0.85,0.85,0,0,1,.78-0.18,1.62,1.62,0,0,1,.87.54q0.3,0.34,1,1.18l0.76,0.9c0.32,0.34.84,0.9,1.57,1.68l1.18,1.25a6.83,6.83,0,0,1,1.62,2.6,2.56,2.56,0,0,1-.85,2.78,3.06,3.06,0,0,1-1.5.75l-1.6.14a3.7,3.7,0,0,0,.12,1.59,2.56,2.56,0,0,1-.88,2.51,3.86,3.86,0,0,1-3.26,1,5.7,5.7,0,0,1-3.34-2q-0.35-.39-1-1.21c-0.44-.55-0.81-1-1.1-1.31s-0.86-.92-1.47-1.53-1.07-1.09-1.36-1.41a1.63,1.63,0,0,1-.45-0.91,0.89,0.89,0,0,1,.31-0.76,1.21,1.21,0,0,1,.41-0.26,0.3,0.3,0,0,1,.35.09c0.24,0.27,1,0,2.14-.66a22.49,22.49,0,0,0,3.5-2.6A10.74,10.74,0,0,0,229,133.92Zm-18.21-5.83,3.36-4.84a1.34,1.34,0,0,0,.07-1.14,1.38,1.38,0,0,1-.05-1,1.43,1.43,0,0,1,1.72-.26,8.52,8.52,0,0,1,2.24,1.17,15.74,15.74,0,0,1,1.84,1.41,1.18,1.18,0,0,1,.35,1.58,1,1,0,0,1-1.08.46,0.83,0.83,0,0,0-.87.2,4.19,4.19,0,0,0-.92,1q-0.73.93-1.48,2a5.76,5.76,0,0,0-.92,1.52,1.81,1.81,0,0,0-.19,1.52,2.35,2.35,0,0,0,1,1.45,2.88,2.88,0,0,0,1.9.57,2.08,2.08,0,0,0,1.6-1l3.1-4.34a1.7,1.7,0,0,0-.16-1.37,0.82,0.82,0,0,1,0-.79q0.41-.59,1.56-0.13a9.7,9.7,0,0,1,1.89,1.07,3.64,3.64,0,0,1,1,1,1.14,1.14,0,0,1,.07,1.33,1.21,1.21,0,0,1-1,.24,1.19,1.19,0,0,0-1.07.37l-4.14,5.22a3.4,3.4,0,0,1-3.14,1.36,9.14,9.14,0,0,1-7.26-5.08A3.81,3.81,0,0,1,210.77,128.09Zm-13.25-3.9a2.26,2.26,0,0,0,1.43-1.36l1.18-2.67q0.57-1.34.87-2.19a8.64,8.64,0,0,0,.45-1.67,1.87,1.87,0,0,1-.67-0.67,0.86,0.86,0,0,1,0-.77,1.43,1.43,0,0,1,1.73-.63,9.84,9.84,0,0,1,2.41.73,12,12,0,0,1,2.21,1.15c0.78,0.56,1.06,1.09.85,1.57a1.19,1.19,0,0,1-1,.64,4.05,4.05,0,0,1-.77,0,5.18,5.18,0,0,0-.62,1.16q-0.51,1.08-1,2.29l-0.88,2.05L203,125.48a0.65,0.65,0,0,0,.12.79,3,3,0,0,0,.85.47,2.39,2.39,0,0,0,2.56-.24,2.2,2.2,0,0,1,1.42-.72,1.05,1.05,0,0,1,.64.94,2.2,2.2,0,0,1-.24,1.28,5.32,5.32,0,0,1-1.38,1.56,1.72,1.72,0,0,1-1.64.52,3.51,3.51,0,0,1-.54-0.27,3.31,3.31,0,0,1-.57-0.54l-6.7-2.83a2,2,0,0,1-1.12-.89,0.83,0.83,0,0,1,0-.7A1.8,1.8,0,0,1,197.53,124.19ZM182.44,117a7.21,7.21,0,0,1,2.61-4.42,6.09,6.09,0,0,1,5-1.59,10.91,10.91,0,0,1,2.37.57l1.34,0.72a3.56,3.56,0,0,0,.67,0,3.67,3.67,0,0,1,.67,0q0.7,0.11,1.07,1.49a5.27,5.27,0,0,1,.17,2.15,2.07,2.07,0,0,1-.78,1.26,1.62,1.62,0,0,1-1.3.45c-0.45-.07-1-0.67-1.62-1.8a3.74,3.74,0,0,0-2.82-2,1.65,1.65,0,0,0-1.53.57,3.13,3.13,0,0,0-.8,1.67,5.07,5.07,0,0,0,.68,3.55,3.9,3.9,0,0,0,2.79,1.88,3.54,3.54,0,0,0,2.31-.37,3.31,3.31,0,0,1,1.27-.53,0.67,0.67,0,0,1,.57.54,2.16,2.16,0,0,1,0,1,2.38,2.38,0,0,1-1.79,2.12l-1.82.47a4.23,4.23,0,0,1-1.44.28,9.48,9.48,0,0,1-1.66-.14,7.15,7.15,0,0,1-4.76-2.79A6.49,6.49,0,0,1,182.44,117Zm-4.18,11.39c0.72,0,1.51-.06,2.33-0.06h0.12a50.37,50.37,0,0,1,42.41,23.15,42,42,0,0,1,5,9.42h0a44.11,44.11,0,0,1,2.61,12.1,49.94,49.94,0,0,1-33.84,52.72,29.39,29.39,0,0,1-6.68,1.75,50.44,50.44,0,0,1-48.51-17.6,37,37,0,0,1-5.09-7.41c-0.27-.52-0.6-1.17-1-1.94a49.52,49.52,0,0,1-5.22-22.18c0-1.47.07-2.92,0.19-4.35a49.68,49.68,0,0,1,4.49-17.3,50.21,50.21,0,0,1,5.22-8.41c1-1.33,3-3.58,4.24-4.82a10,10,0,0,1,1.1-1,50.26,50.26,0,0,1,32.49-14.12h0.12Zm-23.35-12.69a5.89,5.89,0,0,1,1-.47l3.23-1a2.87,2.87,0,0,1,1.37-.07,1.22,1.22,0,0,1,1,.66,1.55,1.55,0,0,1,.1.25,0.48,0.48,0,0,1-.12.52,0.4,0.4,0,0,0-.18.33,1.58,1.58,0,0,0,.67.8,1.35,1.35,0,0,0,.8.31,1,1,0,0,0,.44-0.66,1.66,1.66,0,0,0,.14-1.06,0.85,0.85,0,0,0-.36-0.21,1,1,0,0,1-.51-0.7,1.16,1.16,0,0,1,.67-1.31,5.61,5.61,0,0,1,1.56-.7l0.29-.09,0.2,0,0.5-.17,0.52-.18a1.56,1.56,0,0,1,1,0,1,1,0,0,1,.6.79,0.91,0.91,0,0,1-.41,1.1,9.48,9.48,0,0,0-.9.63L164.71,119l1.17,3.81a1.75,1.75,0,0,0,1.23.86,0.83,0.83,0,0,1,.63.51,1.74,1.74,0,0,1,0,.27,1.64,1.64,0,0,1-.65,1.23,4.38,4.38,0,0,1-1.4.64l-0.55.15-0.53.16-2.52.63a1.29,1.29,0,0,1-1.67-.77,1.72,1.72,0,0,1,.58-1.17,0.82,0.82,0,0,0,.23-0.71q-0.11-.5-0.26-1.13c-0.1-.42-0.23-0.88-0.38-1.37s-0.25-.76-0.36-1a1.3,1.3,0,0,0-.37-0.57,24.88,24.88,0,0,0-2.49-1.86,6.43,6.43,0,0,0-1.62-.91,3.43,3.43,0,0,1-1.13-.25,0.92,0.92,0,0,1-.46-0.52A1.15,1.15,0,0,1,154.91,115.69Zm-15.85,9.17a4.72,4.72,0,0,1,1.36-1.07l4.29-2.64a21.11,21.11,0,0,0,2-1.4l1.09-1a1.34,1.34,0,0,1,1.35.16,3.6,3.6,0,0,1,1.39,1.33c0.48,0.78.43,1.35-.16,1.71a1,1,0,0,1-1,0q-1.34-.68-3.5.65a2.36,2.36,0,0,0-1,.88,1.12,1.12,0,0,0,.24,1l0.86,1.42a1,1,0,0,0,.55.55,2.63,2.63,0,0,0,.95-0.44,1,1,0,0,0,.22-1.35,1,1,0,0,1,.14-1.33,1,1,0,0,1,1.15.18,7.14,7.14,0,0,1,2.26,3.72,1.1,1.1,0,0,1-.36,1.2,1,1,0,0,1-1.11-.49,1.17,1.17,0,0,0-1.6-.19,0.63,0.63,0,0,0-.36.55,2.22,2.22,0,0,0,.41,1,5.19,5.19,0,0,0,1.43,1.77,2.1,2.1,0,0,0,1.59-.51q2.15-1.32,2.21-2.93a3.25,3.25,0,0,1,.32-1.79,0.81,0.81,0,0,1,.77,0,1.6,1.6,0,0,1,.72.66,5.65,5.65,0,0,1,.63,2c0.17,1.06.07,1.71-.3,1.94a6.15,6.15,0,0,1-.7.35q-1,.46-1.3.64l-7.05,4.33a0.81,0.81,0,0,1-1.21-1.08,1.32,1.32,0,0,0,.11-1.22,12,12,0,0,0-.65-1.5c-0.28-.55-0.65-1.19-1.11-1.94a14.27,14.27,0,0,0-2.93-3.82,1.34,1.34,0,0,0-.85,0,0.74,0.74,0,0,1-.84-0.3A0.75,0.75,0,0,1,139.06,124.86ZM124.4,140.22a3.24,3.24,0,0,1,.78-1.49l1.76-2a2.41,2.41,0,0,1,1-.7,1,1,0,0,1,1,.14,1.15,1.15,0,0,1,.33.5,1.24,1.24,0,0,1,0,.75,7.79,7.79,0,0,0,.55.85,4.86,4.86,0,0,0,.61.67c0.23,0.2.39,0.25,0.46,0.14a2.16,2.16,0,0,0,.23-1.52,3.74,3.74,0,0,0-.56-1.69l-0.88-.3a1,1,0,0,1-.38-1.23,3.65,3.65,0,0,1,.82-1.35l1.9-2.16a1.59,1.59,0,0,1,.93-0.51,1,1,0,0,1,.92.17,0.92,0.92,0,0,1,.1,1.31l-0.94,1.43a7.36,7.36,0,0,0,0,1.88,2.25,2.25,0,0,0,.52,1.41,5.24,5.24,0,0,0,1.67.19q1.05,0,3.34,0,1.84,0,3.32,0a1.4,1.4,0,0,1,.79-0.29,1.11,1.11,0,0,1,.67.32,1,1,0,0,1,.42,1,4.39,4.39,0,0,1-.95,1.4q-0.68.76-1.27,1.41l-1.11,1.2-5-.26a2.08,2.08,0,0,0-.43,0,0.59,0.59,0,0,0-.37.21q-0.36.41,0.2,0.89a2.82,2.82,0,0,0,1.26.6,1.66,1.66,0,0,0,.7-0.1,0.73,0.73,0,0,1,.72.18,1,1,0,0,1,.3.9,1.67,1.67,0,0,1-.39,1L135,147.87a2.75,2.75,0,0,1-1,.76,1,1,0,0,1-1.14-.13,0.84,0.84,0,0,1-.22-0.59,3.37,3.37,0,0,1,.06-0.67,11.58,11.58,0,0,0-1.42-1.72q-0.9-.95-1.89-1.81c-0.74-.65-1.39-1.17-1.95-1.57a5.78,5.78,0,0,0-1.28-.75,1.21,1.21,0,0,1-1.42,0A1.12,1.12,0,0,1,124.4,140.22ZM112,173l0-.64a8.17,8.17,0,0,1,.34-2.2,1.25,1.25,0,0,1,1.28-1,0.7,0.7,0,0,1,.58.47,1.64,1.64,0,0,0,1.37,1.07c0.46,0,1.17.08,2.15,0.18s1.7,0.15,2.19.17l0.36,0,0.3,0a11.55,11.55,0,0,0,1.73,0,2.09,2.09,0,0,0,1.31-.81,0.82,0.82,0,0,1,.6-0.35,1,1,0,0,1,.93.75,7.41,7.41,0,0,1,.25,2.92l0,0.72a8.23,8.23,0,0,1-.27,2,1.08,1.08,0,0,1-1.13.86,1,1,0,0,1-.77-0.4,2.38,2.38,0,0,0-1-.88c-0.46,0-1-.07-1.62-0.14-1.46-.17-2.36-0.26-2.73-0.28s-0.85,0-1.53,0-1.15,0-1.39,0a2.11,2.11,0,0,0-1,.61,1.56,1.56,0,0,1-1.08.52c-0.44,0-.73-0.44-0.86-1.26A12,12,0,0,1,112,173Zm2,21.79c-0.08-.39.28-1.28,1.1-2.67s1.52-2.53,2.3-3.78q1.23-2.12,1.11-2.71a0.48,0.48,0,0,0-.48-0.31,3.4,3.4,0,0,0-1,.1,7.77,7.77,0,0,0-1.29.39,4.35,4.35,0,0,0-1,.58,3.35,3.35,0,0,1-.33.76,0.89,0.89,0,0,1-.56.45,1.25,1.25,0,0,1-1.05-.49,4.71,4.71,0,0,1-.85-2,5,5,0,0,1-.1-1.8,1.11,1.11,0,0,1,.76-1.08,0.92,0.92,0,0,1,.66.19l0.74,0.56a19.79,19.79,0,0,0,2.29-.13q1.12-.13,2.23-0.37a15.83,15.83,0,0,0,2-.54,12.14,12.14,0,0,0,1.87-.87c0-.07.16-0.35,0.35-0.87a0.86,0.86,0,0,1,.53-0.62,1.2,1.2,0,0,1,1.28.79,6.82,6.82,0,0,1,.65,1.91l0.09,0.41a3.88,3.88,0,0,0,.1.39,2.5,2.5,0,0,1,0,1,4.6,4.6,0,0,1-.57,1.29q-0.82,1.34-1.62,2.7-0.92,1.55-1.18,2.07a2.41,2.41,0,0,0-.37,1.14c0.08,0.38.51,0.48,1.3,0.32a5,5,0,0,0,.76-0.22c0.26-.08.48-0.16,0.67-0.25a1.13,1.13,0,0,0,.49-0.78,1,1,0,0,1,.7-0.76,1.11,1.11,0,0,1,1.22.79,5.84,5.84,0,0,1,.51,1.52l0,0.24v0.06l0,0.18c0,0.06,0,.15.08,0.27a4.34,4.34,0,0,1,.11,1.39,1,1,0,0,1-.77,1,1.3,1.3,0,0,1-1.22-.58,0.91,0.91,0,0,0-.6-0.39,12.28,12.28,0,0,0-2.25.15q-1.28.19-3.23,0.6a22.19,22.19,0,0,1-4.36.66A1,1,0,0,1,114,194.81Zm8.51,14.81a1.21,1.21,0,0,0-.16,1,0.87,0.87,0,0,1-.4,1,1.23,1.23,0,0,1-1.35-.3,8.83,8.83,0,0,1-1.77-2.61,12.49,12.49,0,0,1-1-2.52c-0.24-1-.07-1.58.49-1.86a1.07,1.07,0,0,1,1,.29,1.53,1.53,0,0,0,1,.41q1-.29,1.68-0.56a12.36,12.36,0,0,0,1.48-.64c0.47-.24.86-0.43,1.19-0.58l0.93-.43a6,6,0,0,0,1.3-.82,0.59,0.59,0,0,0,.22-0.76,2.93,2.93,0,0,0-1.47-.49,2.28,2.28,0,0,1-1.73-1,0.86,0.86,0,0,1,.07-0.89,2.07,2.07,0,0,1,.81-0.7,4.59,4.59,0,0,1,2.31-.38,2.26,2.26,0,0,1,2.08,1,1.5,1.5,0,0,1,.12.5,1.52,1.52,0,0,0,.13.51l3.18,6.12a1.25,1.25,0,0,0,.32.35,1.38,1.38,0,0,1,.31.29c0.37,0.58.22,1.3-.43,2.15a5.06,5.06,0,0,1-1.7,1.49,1.61,1.61,0,0,1-1.18.12,1.31,1.31,0,0,1-.88-0.7,1.6,1.6,0,0,1,.25-1.83,1.49,1.49,0,0,0,.37-1.63q-0.11-.21-1.51.36c-0.93.38-1.88,0.82-2.84,1.3-0.61.31-1.09,0.58-1.42,0.79S123,209.14,122.48,209.62Zm12.85,9.75a1,1,0,0,0,1.38,0,0.87,0.87,0,1,1,1.31,1.13,5.74,5.74,0,0,1-1.47,1.6,5.81,5.81,0,0,1-2,1.12,1.11,1.11,0,0,1-1.25-.2c-0.19-.24-0.08-0.62.35-1.16a1.15,1.15,0,0,0,0-1.61,0.62,0.62,0,0,0-.6-0.29,2.16,2.16,0,0,0-.92.52,5.23,5.23,0,0,0-1.59,1.64,2.08,2.08,0,0,0,.71,1.51c1.06,1.31,2.14,1.91,3.21,1.82a3.24,3.24,0,0,1,1.84.09,0.8,0.8,0,0,1,.15.76,1.6,1.6,0,0,1-.57.79A5.83,5.83,0,0,1,134,228c-1,.31-1.71.29-2-0.05a5.9,5.9,0,0,1-.45-0.65,13.35,13.35,0,0,0-.8-1.21l-5.24-6.44a0.84,0.84,0,0,1,0-1.34,0.87,0.87,0,0,1,.93,0,1.36,1.36,0,0,0,1.24,0,13.08,13.08,0,0,0,1.42-.83c0.51-.35,1.11-0.79,1.8-1.35a14.32,14.32,0,0,0,3.45-3.39,1.33,1.33,0,0,0-.07-0.85,0.74,0.74,0,0,1,.19-0.87,0.76,0.76,0,0,1,.88-0.16,4.78,4.78,0,0,1,1.25,1.21l3.19,3.92a20.49,20.49,0,0,0,1.66,1.85c0.37,0.32.74,0.64,1.11,1a1.32,1.32,0,0,1,0,1.35,3.61,3.61,0,0,1-1.15,1.55c-0.72.58-1.3,0.6-1.74,0.06a1,1,0,0,1-.09-1c0.34-.94,0-2.07-1.1-3.39a2.39,2.39,0,0,0-1-.86,1.12,1.12,0,0,0-.92.36l-1.31,1a1,1,0,0,0-.48.62A2.53,2.53,0,0,0,135.33,219.37Zm19.25,12.23a3.06,3.06,0,0,1-1.61,1.25l-1.79.24a3.71,3.71,0,0,1,.68,1.82,5,5,0,0,1-.73,2.89,1.3,1.3,0,0,0-.05,1.43,0.77,0.77,0,0,1,.17.95,1.22,1.22,0,0,1-1.3.41,5,5,0,0,1-2-.93,3.35,3.35,0,0,1-1.7-3.06,21.33,21.33,0,0,1,.89-2.9c0.35-1,.23-1.74-0.35-2.15a0.47,0.47,0,0,0-.57,0,2.13,2.13,0,0,0-.49.52l-0.16.23c-0.81,1.15-1.07,2-.8,2.64a0.77,0.77,0,0,1-.07.81,1,1,0,0,1-1.22.3,10.31,10.31,0,0,1-2.41-1.36q-3-2.07-2.2-3.19a0.77,0.77,0,0,1,.74-0.29c0.75,0.05,1.56-.53,2.41-1.75l2.38-3.35q1.47-2.08.92-3a0.66,0.66,0,0,1,0-.78q0.67-1,2.48.31c0.21,0.15.51,0.38,0.92,0.71s0.71,0.57.92,0.71c0.43,0.3.82,0.56,1.18,0.77l2,1.23a5.54,5.54,0,0,1,2.25,2.74A3,3,0,0,1,154.58,231.6Zm18.09,5.31a12.21,12.21,0,0,0-1,2c-0.32.79-.68,1.82-1.09,3.08a21.57,21.57,0,0,1-1.61,4.08,1,1,0,0,1-1.14.62q-0.57-.18-1.77-2.28-1.08-1.93-2.14-3.87-1.23-2.12-1.8-2.31a0.47,0.47,0,0,0-.51.26,3.4,3.4,0,0,0-.43.93,7.67,7.67,0,0,0-.3,1.31,4.25,4.25,0,0,0,0,1.14,3.2,3.2,0,0,1,.5.67,0.86,0.86,0,0,1,.11.7,1.24,1.24,0,0,1-1,.66,4.69,4.69,0,0,1-2.21-.29,5.06,5.06,0,0,1-1.62-.82,1.1,1.1,0,0,1-.56-1.19,0.92,0.92,0,0,1,.49-0.47l0.86-.35a20,20,0,0,0,1-2c0.3-.69.56-1.38,0.79-2.1a15.48,15.48,0,0,0,.51-2,11.49,11.49,0,0,0,.18-2,8.71,8.71,0,0,0-.58-0.74,0.85,0.85,0,0,1-.28-0.76,1.19,1.19,0,0,1,1.33-.71,6.88,6.88,0,0,1,2,.39l0.4,0.13,0.39,0.1a2.53,2.53,0,0,1,.89.5,4.38,4.38,0,0,1,.84,1.13q0.76,1.38,1.54,2.75c0.59,1,1,1.73,1.21,2.06a2.34,2.34,0,0,0,.81.89c0.37,0.12.68-.2,0.93-1a4.92,4.92,0,0,0,.19-0.76c0.06-.26.1-0.5,0.12-0.7a1.13,1.13,0,0,0-.43-0.82,1,1,0,0,1-.31-1,1.12,1.12,0,0,1,1.29-.66,6.16,6.16,0,0,1,1.59.32l0.23,0.07,0.05,0,0.17,0.06,0.27,0.07a4.34,4.34,0,0,1,1.27.6,1,1,0,0,1,.5,1.17,1.3,1.3,0,0,1-1.11.76A0.9,0.9,0,0,0,172.67,236.91Zm16.9,10.54a9.34,9.34,0,0,1-2.82.25,20.17,20.17,0,0,1-3.28-.26,1.05,1.05,0,0,1-1.11-1,1.08,1.08,0,0,1,.82-0.83,0.53,0.53,0,0,0,.39-0.46,0.73,0.73,0,0,0-.65-0.75,7.4,7.4,0,0,0-1.85-.21h-0.55a4.84,4.84,0,0,0-1.73.15,0.86,0.86,0,0,0-.38.85,0.77,0.77,0,0,0,.59.49,0.78,0.78,0,0,1,.61.69c0,0.77-1,1.14-2.86,1.11a7.74,7.74,0,0,1-2.33-.28,0.87,0.87,0,0,1-.65-0.87,1.06,1.06,0,0,1,.15-0.58,0.65,0.65,0,0,1,.57-0.21c0.44,0,1.07-.71,1.87-2.15a33.65,33.65,0,0,0,1.95-4.29,13,13,0,0,0,.94-3q0-2.48,2.22-2.44,1.81,0,3.61,3.13,0.78,1.33,2.68,5.75c0.89,2.07,1.54,3.11,2,3.12a0.62,0.62,0,0,1,.71.69A1.1,1.1,0,0,1,189.57,247.45Zm14.06-12.91a1.32,1.32,0,0,1-.85.72,1.64,1.64,0,0,1-1.77-.6,1.5,1.5,0,0,0-1.53-.66c-0.16,0-.13.56,0.07,1.54s0.45,2,.74,3q0.28,1,.51,1.54c0.16,0.37.43,0.88,0.79,1.52a1.21,1.21,0,0,0,.92.35,0.87,0.87,0,0,1,.9.57,1.21,1.21,0,0,1-.55,1.26,8.76,8.76,0,0,1-2.91,1.22,12.69,12.69,0,0,1-2.69.54c-1,0-1.57-.23-1.75-0.83a1.07,1.07,0,0,1,.48-0.93,1.48,1.48,0,0,0,.58-0.87c-0.06-.66-0.14-1.25-0.23-1.75a12.39,12.39,0,0,0-.35-1.57c-0.14-.5-0.26-0.93-0.35-1.27l-0.24-1a6.33,6.33,0,0,0-.56-1.42,0.6,0.6,0,0,0-.71-0.36,2.8,2.8,0,0,0-.76,1.34,2.26,2.26,0,0,1-1.31,1.5,0.87,0.87,0,0,1-.87-0.23,2.09,2.09,0,0,1-.54-0.93,4.51,4.51,0,0,1,.06-2.33,2.24,2.24,0,0,1,1.37-1.85,1.64,1.64,0,0,1,.52,0,1.65,1.65,0,0,0,.54,0l6.64-1.94a1.28,1.28,0,0,0,.41-0.24,1.43,1.43,0,0,1,.35-0.24c0.64-.25,1.32,0,2,0.84a5.11,5.11,0,0,1,1.15,1.94A1.56,1.56,0,0,1,203.63,234.54Zm13.65,2.7a11.8,11.8,0,0,1-1.9,1.32l-0.55.33a8.27,8.27,0,0,1-2,1,1.26,1.26,0,0,1-1.55-.5,0.7,0.7,0,0,1,.07-0.74,1.62,1.62,0,0,0,.13-1.73c-0.24-.39-0.59-1-1.06-1.87s-0.83-1.49-1.08-1.9l-0.19-.31-0.15-.25a10.7,10.7,0,0,0-1-1.42,2.1,2.1,0,0,0-1.41-.63,0.8,0.8,0,0,1-.63-0.3,1,1,0,0,1,.11-1.18,7.56,7.56,0,0,1,2.29-1.84l0.62-.37a8.18,8.18,0,0,1,1.81-.89,1.08,1.08,0,0,1,1.35.45,1,1,0,0,1,.09.85,2.4,2.4,0,0,0-.18,1.3c0.23,0.39.5,0.86,0.79,1.42q1,1.95,1.29,2.4T215,233.6c0.39,0.55.66,0.94,0.78,1.14a2.08,2.08,0,0,0,1.07.49,1.56,1.56,0,0,1,1,.59C218.09,236.19,217.89,236.66,217.28,237.23Zm13.81-12.71a8,8,0,0,1-3.11,4.85,6.92,6.92,0,0,1-5.22,1.49,6.79,6.79,0,0,1-4.7-2.67,6.5,6.5,0,0,1-1.38-5.13,7,7,0,0,1,2.78-4.69,7.45,7.45,0,0,1,5.77-1.69,7,7,0,0,1,4.66,2.75A6,6,0,0,1,231.09,224.52Zm12.59-15.7q-0.31.52-2.63,1.21-2.13.62-4.27,1.21-2.36.71-2.67,1.23a0.47,0.47,0,0,0,.14.55,3.53,3.53,0,0,0,.82.63,8,8,0,0,0,1.22.59,4.18,4.18,0,0,0,1.12.25,3.17,3.17,0,0,1,.76-0.33,0.88,0.88,0,0,1,.72.05,1.25,1.25,0,0,1,.43,1.07,4.64,4.64,0,0,1-.78,2.08,5,5,0,0,1-1.16,1.38,1.12,1.12,0,0,1-1.29.28,0.89,0.89,0,0,1-.36-0.58c0-.05-0.06-0.36-0.15-0.91a20,20,0,0,0-1.77-1.46c-0.61-.44-1.24-0.86-1.88-1.24a16.6,16.6,0,0,0-1.8-.94,11.69,11.69,0,0,0-2-.63,8.68,8.68,0,0,0-.85.4,0.85,0.85,0,0,1-.81.09,1.18,1.18,0,0,1-.39-1.45,6.91,6.91,0,0,1,.83-1.84l0.22-.36a3.62,3.62,0,0,0,.19-0.35A2.46,2.46,0,0,1,228,209a4.51,4.51,0,0,1,1.29-.56c1-.28,2-0.57,3-0.87,1.16-.34,1.92-0.57,2.29-0.71a2.45,2.45,0,0,0,1.06-.58c0.2-.33,0-0.7-0.74-1.12a5.15,5.15,0,0,0-.7-0.35q-0.37-.17-0.66-0.28a1.15,1.15,0,0,0-.9.24,1,1,0,0,1-1,.08,1.11,1.11,0,0,1-.35-1.4A6,6,0,0,1,232,202l0.13-.2,0,0,0.09-.15a2.82,2.82,0,0,0,.13-0.25,4.14,4.14,0,0,1,.87-1.09,1,1,0,0,1,1.26-.23,1.29,1.29,0,0,1,.49,1.25,0.89,0.89,0,0,0,.17.68,12,12,0,0,0,1.75,1.42q1.06,0.73,2.77,1.75a21.25,21.25,0,0,1,3.65,2.48A1,1,0,0,1,243.67,208.82Zm5.17-19.58a19.65,19.65,0,0,1-.93,3.13,1.05,1.05,0,0,1-1.17.88,1.07,1.07,0,0,1-.64-1,0.54,0.54,0,0,0-.37-0.48,0.74,0.74,0,0,0-.87.48,7,7,0,0,0-.59,1.75l-0.12.52a4.88,4.88,0,0,0-.21,1.72,0.87,0.87,0,0,0,.76.54,0.77,0.77,0,0,0,.61-0.48,0.79,0.79,0,0,1,.81-0.45c0.76,0.18.93,1.18,0.5,3a7.56,7.56,0,0,1-.76,2.21,0.88,0.88,0,0,1-1,.45,1,1,0,0,1-.54-0.27,0.65,0.65,0,0,1-.09-0.59c0.1-.43-0.47-1.18-1.72-2.27a34.34,34.34,0,0,0-3.82-2.79,13,13,0,0,0-2.74-1.53c-1.62-.37-2.27-1.26-1.95-2.67q0.41-1.75,3.82-2.86,1.48-.48,6.22-1.41,3.33-.65,3.48-1.28a0.62,0.62,0,0,1,.83-0.55,1.11,1.11,0,0,1,.85,1.07A9.3,9.3,0,0,1,248.85,189.25ZM248.79,182a1.81,1.81,0,0,1-1.09-.73,2.29,2.29,0,0,0-1.87-.68l-2.93.11c-1,.05-1.77.11-2.37,0.18a8.57,8.57,0,0,0-1.71.33,1.9,1.9,0,0,1-.32.9,0.87,0.87,0,0,1-.68.37,1.43,1.43,0,0,1-1.34-1.27,9.86,9.86,0,0,1-.39-2.49,11.81,11.81,0,0,1,.07-2.48c0.17-.95.52-1.43,1.05-1.46a1.17,1.17,0,0,1,1,.62,4.71,4.71,0,0,1,.36.68,5.45,5.45,0,0,0,1.33,0c0.81,0,1.65,0,2.53-.09l2.25-.12,1.77-.13a0.66,0.66,0,0,0,.66-0.46,3.15,3.15,0,0,0,0-1,2.38,2.38,0,0,0-1.34-2.19,2.21,2.21,0,0,1-1.28-1,1.05,1.05,0,0,1,.57-1,2.22,2.22,0,0,1,1.27-.35,5.29,5.29,0,0,1,2,.56,1.71,1.71,0,0,1,1.2,1.24,3,3,0,0,1,0,.6,3.08,3.08,0,0,1-.24.76l0.38,7.25a2,2,0,0,1-.31,1.4A0.86,0.86,0,0,1,248.79,182Z" transform="translate(-94.28 -93.41)"/><path class="cls-1" d="M181,239.1a1.62,1.62,0,0,0-.84,1,4.44,4.44,0,0,0-.51,1.45,0.49,0.49,0,0,0,.46.27,5.24,5.24,0,0,0,1,.12,6.51,6.51,0,0,0,1,0c0.26,0,.39-0.13.39-0.25a3.66,3.66,0,0,0-.62-1.51A1.9,1.9,0,0,0,181,239.1Z" transform="translate(-94.28 -93.41)"/><path class="cls-1" d="M212.65,206.59s1.25,2.45,3.33,2.64c1.63,0.14,3.42-1.07,5.32-3.61,5.48-7.34,9.18-20,8.28-32.27a48.4,48.4,0,0,0-7.43-21.22c-0.7-1-1.47-2.08-2.31-3.21-2.31-3.09-4.65-4.87-6.78-5.13a3.61,3.61,0,0,0-2.65.6l-18.65,15.2Z" transform="translate(-94.28 -93.41)"/><path class="cls-1" d="M178.89,146.68c-5.79-.27-10-2.77-10-6,0-3.44,4.77-6,11.1-6s11.1,2.6,11.1,6c0,3-3.72,5.42-9,5.93v4.91L196.64,140s2.73-2.51,2.73-4.71c0-.08,0-0.16,0-0.24a2.57,2.57,0,0,0-1.39-1.95c-5.13-2.65-12.08-3.57-17.35-3.59q-1.24,0-2.47.06c-13.88.79-14.15,7.25-14.15,7.31v29l14.88-11.81v-7.38Z" transform="translate(-94.28 -93.41)"/><path class="cls-1" d="M187.85,140.67c0-1-3-2.82-7.88-2.82s-7.88,1.82-7.88,2.82,3,2.82,7.88,2.82S187.85,141.67,187.85,140.67Z" transform="translate(-94.28 -93.41)"/><path class="cls-1" d="M182.11,170.17v37.32h6.27v3.6h-2.55v4h2.55v3.6h-6.28v1.6H182a1.63,1.63,0,0,1-3.25-.08,1.65,1.65,0,0,1,.14-0.66l0-49.56-14.75,11.75c0,0.55,0,25.14,0,25.14v0s-0.05.61-.05,1.55c0,4.24,1,15.87,11.62,18.46a69.51,69.51,0,0,0,14.4-.6,48.65,48.65,0,0,0,6.41-1.69,9.07,9.07,0,0,0,2.52-1.51,8.78,8.78,0,0,0,3-6.74,11.37,11.37,0,0,0-.87-4.32Z" transform="translate(-94.28 -93.41)"/><path class="cls-1" d="M149.14,227.11l-1.41,1.83a1,1,0,0,0-.22.48,0.52,0.52,0,0,0,.28.37q1.33,0.93,2.4-.58c0.74-1,.74-1.83,0-2.34A0.68,0.68,0,0,0,149.14,227.11Z" transform="translate(-94.28 -93.41)"/></svg>