<svg id="Layer_1" data-name="Layer 1" xmlns="http://www.w3.org/2000/svg" viewBox="0 0 259.37 59.37"><defs><style>.cls-1{fill:#fff;}.cls-2{isolation:isolate;}.cls-3{fill:#ccc;}</style></defs><title>logo</title><path class="cls-1" d="M0,0.89H3.68V14.53L18.22,0.89h4.87L5.68,17.15l18.84,20H19.6L3.68,20.32V37.24H0V0.89Z" transform="translate(0 0.07)"/><path class="cls-1" d="M33.68,0.89H54.53V4.46H37.31v11.4h17v3.57h-17V33.67h17v3.57H33.68V0.89Z" transform="translate(0 0.07)"/><path class="cls-1" d="M65.47,0.89h4.21L79,16,88.22,0.89h4.17l-11.52,19V37.27H77.22V19.86Z" transform="translate(0 0.07)"/><path class="cls-1" d="M148.41,7.61l-2.87,2.2a15.69,15.69,0,0,0-5.7-4.69,16.66,16.66,0,0,0-7.31-1.6,16.15,16.15,0,0,0-8.06,2.09,15,15,0,0,0-5.75,5.61,15.5,15.5,0,0,0-2,7.92,14.86,14.86,0,0,0,4.56,11.09,15.82,15.82,0,0,0,11.51,4.45,16.21,16.21,0,0,0,12.78-6l2.87,2.18a18.3,18.3,0,0,1-6.78,5.35,21.3,21.3,0,0,1-9.08,1.89q-9.54,0-15.05-6.34a19.13,19.13,0,0,1-4.62-12.93,18,18,0,0,1,5.6-13.42,19.31,19.31,0,0,1,14-5.44,20.69,20.69,0,0,1,9.19,2A17.83,17.83,0,0,1,148.41,7.61Z" transform="translate(0 0.07)"/><path class="cls-1" d="M163.29,0.89h3.65V33.67h14v3.57H163.29V0.89Z" transform="translate(0 0.07)"/><path class="cls-1" d="M193.1,0.89h3.65V22.83a45.14,45.14,0,0,0,.15,4.87,8,8,0,0,0,1.26,3.59,7.44,7.44,0,0,0,3,2.42,9.54,9.54,0,0,0,4.13,1,8.13,8.13,0,0,0,3.46-.77,7.7,7.7,0,0,0,2.77-2.12,8.67,8.67,0,0,0,1.63-3.29,27.2,27.2,0,0,0,.37-5.68v-22h3.65V22.82a26.7,26.7,0,0,1-1,7.87,10.71,10.71,0,0,1-3.81,5.22,10.93,10.93,0,0,1-6.92,2.22,13.27,13.27,0,0,1-7.55-2.1,10.11,10.11,0,0,1-4.21-5.56,29.33,29.33,0,0,1-.67-7.66V0.89h0.09Z" transform="translate(0 0.07)"/><path class="cls-1" d="M232.55,0.89h7.13a17,17,0,0,1,6.65,1A8.14,8.14,0,0,1,250,5a8.65,8.65,0,0,1,1.35,4.72,8.47,8.47,0,0,1-1.18,4.42,8.76,8.76,0,0,1-3.48,3.23,13.52,13.52,0,0,1,4.38,2.26,9.07,9.07,0,0,1,2.39,3.14,9.38,9.38,0,0,1,.85,4,9.79,9.79,0,0,1-3.2,7.4,12,12,0,0,1-8.59,3h-10V0.89h0Zm3.57,3.57V16.15h2.07a16.15,16.15,0,0,0,5.55-.7,6,6,0,0,0,2.82-2.23,5.86,5.86,0,0,0,1-3.37,4.78,4.78,0,0,0-1.74-3.92q-1.74-1.42-5.54-1.42h-4.2Zm0,15.3V33.68h4.5a16.15,16.15,0,0,0,5.84-.78,6.62,6.62,0,0,0,3-2.43,6.34,6.34,0,0,0-.46-7.8,8.16,8.16,0,0,0-4.36-2.47,31.68,31.68,0,0,0-6.44-.44h-2.08Z" transform="translate(0 0.07)"/><path class="cls-1" d="M253.37,3a3,3,0,1,1,3.07,2.93h-0.07a2.92,2.92,0,0,1-3-2.84S253.37,3,253.37,3Zm3,2.45A2.44,2.44,0,1,0,254,3V3a2.36,2.36,0,0,0,2.27,2.45h0.11Zm-0.62-.75h-0.51V1.32h1.29a1,1,0,0,1,1.19,1,0.88,0.88,0,0,1-.83.93h0l1,1.49h-0.57l-0.89-1.46h-0.71V4.74Zm0.61-1.9c0.43,0,.82,0,0.82-0.55s-0.38-.5-0.74-0.5h-0.76v1h0.61Z" transform="translate(0 0.07)"/><g class="cls-2"><g class="cls-2"><path class="cls-3" d="M11.66,49.63H6.94V54H12.2v1.31H5.38V43.18h6.55V44.5h-5v3.83h4.72v1.3Z" transform="translate(0 0.07)"/></g><g class="cls-2"><path class="cls-3" d="M21.63,42.54V53.07c0,0.77,0,1.66.07,2.25H20.28l-0.07-1.51h0a3.22,3.22,0,0,1-3,1.71c-2.11,0-3.73-1.78-3.73-4.43,0-2.9,1.78-4.68,3.91-4.68A2.91,2.91,0,0,1,20,47.74h0v-5.2h1.58ZM20,50.15A2.79,2.79,0,0,0,20,49.49a2.33,2.33,0,0,0-2.29-1.84c-1.64,0-2.61,1.44-2.61,3.37,0,1.76.86,3.22,2.57,3.22A2.38,2.38,0,0,0,20,52.35,2.75,2.75,0,0,0,20,51.67V50.15Z" transform="translate(0 0.07)"/><path class="cls-3" d="M24.26,49c0-.9,0-1.64-0.07-2.36h1.39L25.64,48H25.7a3,3,0,0,1,2.74-1.6,2.58,2.58,0,0,1,2.47,1.75h0a3.59,3.59,0,0,1,1-1.13,3,3,0,0,1,1.93-.61c1.15,0,2.86.76,2.86,3.78v5.13H35.15V50.39c0-1.67-.61-2.68-1.89-2.68a2.05,2.05,0,0,0-1.87,1.44,2.61,2.61,0,0,0-.13.79v5.38H29.71V50.1c0-1.39-.61-2.39-1.82-2.39a2.17,2.17,0,0,0-2,1.58,2.19,2.19,0,0,0-.13.77v5.26H24.26V49Z" transform="translate(0 0.07)"/><path class="cls-3" d="M47.15,50.89a4.26,4.26,0,0,1-4.34,4.63A4.14,4.14,0,0,1,38.64,51c0-2.92,1.91-4.63,4.32-4.63S47.15,48.23,47.15,50.89ZM40.24,51c0,1.91,1.1,3.35,2.65,3.35s2.65-1.42,2.65-3.38c0-1.48-.74-3.35-2.61-3.35S40.24,49.32,40.24,51Z" transform="translate(0 0.07)"/><path class="cls-3" d="M49.15,49c0-.9,0-1.64-0.07-2.36h1.4L50.57,48h0a3.2,3.2,0,0,1,2.88-1.64c1.21,0,3.08.72,3.08,3.71v5.2H55v-5c0-1.4-.52-2.58-2-2.58a2.25,2.25,0,0,0-2.12,1.62,2.28,2.28,0,0,0-.11.74v5.24H49.15V49Z" transform="translate(0 0.07)"/><path class="cls-3" d="M66.67,42.54V53.07c0,0.77,0,1.66.07,2.25H65.32l-0.07-1.51h0a3.22,3.22,0,0,1-3,1.71c-2.11,0-3.73-1.78-3.73-4.43,0-2.9,1.78-4.68,3.91-4.68A2.91,2.91,0,0,1,65,47.74h0v-5.2h1.58Zm-1.58,7.62A2.79,2.79,0,0,0,65,49.49a2.33,2.33,0,0,0-2.29-1.84c-1.64,0-2.61,1.44-2.61,3.37,0,1.76.86,3.22,2.57,3.22A2.38,2.38,0,0,0,65,52.35a2.75,2.75,0,0,0,.07-0.68V50.15Z" transform="translate(0 0.07)"/><path class="cls-3" d="M69.08,53.7a4.16,4.16,0,0,0,2.09.63c1.15,0,1.69-.58,1.69-1.3s-0.45-1.17-1.62-1.6c-1.57-.56-2.3-1.42-2.3-2.47,0-1.41,1.13-2.56,3-2.56a4.35,4.35,0,0,1,2.14.54l-0.4,1.15a3.38,3.38,0,0,0-1.78-.5,1.27,1.27,0,0,0-1.46,1.19c0,0.72.52,1,1.66,1.48,1.51,0.58,2.29,1.33,2.29,2.63,0,1.53-1.19,2.61-3.26,2.61a5,5,0,0,1-2.45-.59Z" transform="translate(0 0.07)"/></g><g class="cls-2"><path class="cls-3" d="M80.1,49.86V51H75.65V49.86H80.1Z" transform="translate(0 0.07)"/></g><g class="cls-2"><path class="cls-3" d="M83.79,55.32L80.71,43.18h1.66l1.44,6.14c0.36,1.51.68,3,.9,4.2h0c0.2-1.21.58-2.65,1-4.21l1.62-6.12H89l1.48,6.16c0.34,1.44.67,2.88,0.85,4.16h0c0.25-1.33.59-2.68,1-4.2l1.6-6.12h1.6L92.09,55.32H90.45L88.92,49a36.55,36.55,0,0,1-.79-4h0a37.92,37.92,0,0,1-.94,4l-1.73,6.32H83.79Z" transform="translate(0 0.07)"/></g><g class="cls-2"><path class="cls-3" d="M104.27,50.89a4.26,4.26,0,0,1-4.34,4.63A4.14,4.14,0,0,1,95.75,51c0-2.92,1.91-4.63,4.32-4.63S104.27,48.23,104.27,50.89ZM97.36,51c0,1.91,1.1,3.35,2.65,3.35s2.65-1.42,2.65-3.38c0-1.48-.74-3.35-2.61-3.35S97.36,49.32,97.36,51Z" transform="translate(0 0.07)"/><path class="cls-3" d="M114.15,50.89a4.26,4.26,0,0,1-4.34,4.63A4.14,4.14,0,0,1,105.64,51c0-2.92,1.91-4.63,4.32-4.63S114.15,48.23,114.15,50.89Zm-6.91.09c0,1.91,1.1,3.35,2.65,3.35s2.65-1.42,2.65-3.38c0-1.48-.74-3.35-2.61-3.35S107.24,49.32,107.24,51Z" transform="translate(0 0.07)"/><path class="cls-3" d="M123.67,42.54V53.07c0,0.77,0,1.66.07,2.25h-1.42l-0.07-1.51h0a3.22,3.22,0,0,1-3,1.71c-2.11,0-3.73-1.78-3.73-4.43,0-2.9,1.78-4.68,3.91-4.68a2.91,2.91,0,0,1,2.63,1.33h0v-5.2h1.58Zm-1.58,7.62a2.79,2.79,0,0,0-.07-0.67,2.33,2.33,0,0,0-2.29-1.84c-1.64,0-2.61,1.44-2.61,3.37,0,1.76.86,3.22,2.57,3.22A2.38,2.38,0,0,0,122,52.35a2.75,2.75,0,0,0,.07-0.68V50.15Z" transform="translate(0 0.07)"/></g><g class="cls-2"><path class="cls-3" d="M126.93,46.61L128.09,51c0.25,1,.49,1.87.65,2.77h0.05c0.2-.88.49-1.82,0.77-2.75L131,46.61h1.33L133.67,51c0.32,1,.58,2,0.77,2.84h0.05a26.1,26.1,0,0,1,.67-2.83l1.24-4.38H138l-2.81,8.71h-1.44l-1.33-4.16a28.86,28.86,0,0,1-.77-2.86h0a25.75,25.75,0,0,1-.79,2.88l-1.4,4.14h-1.44l-2.63-8.71h1.62Z" transform="translate(0 0.07)"/></g><g class="cls-2"><path class="cls-3" d="M144.3,55.32l-0.13-1.1h-0.05a3.25,3.25,0,0,1-2.67,1.3,2.48,2.48,0,0,1-2.67-2.5c0-2.11,1.87-3.26,5.24-3.24V49.59a1.8,1.8,0,0,0-2-2,4.34,4.34,0,0,0-2.27.65l-0.36-1a5.41,5.41,0,0,1,2.86-.77c2.67,0,3.31,1.82,3.31,3.57v3.26a12.22,12.22,0,0,0,.14,2.09H144.3Zm-0.23-4.45c-1.73,0-3.69.27-3.69,2a1.4,1.4,0,0,0,1.49,1.51A2.17,2.17,0,0,0,144,52.89a1.66,1.66,0,0,0,.09-0.5V50.87Z" transform="translate(0 0.07)"/></g><g class="cls-2"><path class="cls-3" d="M148.59,46.61l1.91,5.15c0.2,0.58.41,1.26,0.56,1.78h0c0.16-.52.34-1.19,0.56-1.82l1.73-5.11h1.67l-2.38,6.21c-1.13,3-1.91,4.52-3,5.46a4.3,4.3,0,0,1-1.94,1L147.35,58a4.2,4.2,0,0,0,1.39-.77,4.81,4.81,0,0,0,1.33-1.76,1.15,1.15,0,0,0,.13-0.38,1.38,1.38,0,0,0-.11-0.41l-3.22-8h1.73Z" transform="translate(0 0.07)"/></g><g class="cls-2"><path class="cls-3" d="M161.92,43.18v5.08h5.87V43.18h1.58V55.32h-1.58V49.63h-5.87v5.69h-1.57V43.18h1.57Z" transform="translate(0 0.07)"/></g><g class="cls-2"><path class="cls-3" d="M174,44.16a1,1,0,0,1-2,0,1,1,0,0,1,1-1A0.94,0.94,0,0,1,174,44.16Zm-1.76,11.16V46.61h1.58v8.71h-1.58Z" transform="translate(0 0.07)"/><path class="cls-3" d="M183.93,46.61c0,0.63-.07,1.33-0.07,2.39v5.06c0,2-.4,3.22-1.24,4a4.62,4.62,0,0,1-3.17,1,5.63,5.63,0,0,1-2.9-.72l0.4-1.21a4.92,4.92,0,0,0,2.56.68c1.62,0,2.81-.85,2.81-3v-1h0a3.11,3.11,0,0,1-2.77,1.46c-2.16,0-3.71-1.84-3.71-4.25,0-3,1.93-4.63,3.93-4.63a2.9,2.9,0,0,1,2.72,1.51h0l0.07-1.31h1.39ZM182.3,50a2.25,2.25,0,0,0-.09-0.72A2.28,2.28,0,0,0,180,47.65c-1.51,0-2.59,1.28-2.59,3.29,0,1.71.86,3.13,2.58,3.13a2.32,2.32,0,0,0,2.2-1.62,2.76,2.76,0,0,0,.13-0.85V50Z" transform="translate(0 0.07)"/><path class="cls-3" d="M186.49,42.54h1.58V48h0a2.94,2.94,0,0,1,1.13-1.12,3.27,3.27,0,0,1,1.62-.45c1.17,0,3,.72,3,3.73v5.19h-1.58v-5c0-1.4-.52-2.59-2-2.59a2.28,2.28,0,0,0-2.12,1.58,1.92,1.92,0,0,0-.11.76v5.26h-1.58V42.54Z" transform="translate(0 0.07)"/></g><g class="cls-2"><path class="cls-3" d="M200.13,53.41a5.55,5.55,0,0,0,2.81.79c1.6,0,2.54-.85,2.54-2.07s-0.65-1.78-2.29-2.41c-2-.7-3.21-1.73-3.21-3.44,0-1.89,1.57-3.29,3.93-3.29a5.5,5.5,0,0,1,2.68.59l-0.43,1.28a4.84,4.84,0,0,0-2.3-.58c-1.66,0-2.29,1-2.29,1.82,0,1.13.74,1.69,2.41,2.34,2.05,0.79,3.1,1.78,3.1,3.57s-1.39,3.49-4.25,3.49a6.28,6.28,0,0,1-3.1-.77Z" transform="translate(0 0.07)"/></g><g class="cls-2"><path class="cls-3" d="M215.5,55a5.84,5.84,0,0,1-2.5.5,4.14,4.14,0,0,1-4.34-4.45,4.43,4.43,0,0,1,4.68-4.63,5.3,5.3,0,0,1,2.2.45l-0.36,1.22a3.66,3.66,0,0,0-1.84-.42,3,3,0,0,0-3.08,3.3,3,3,0,0,0,3,3.26,4.5,4.5,0,0,0,1.95-.43Z" transform="translate(0 0.07)"/><path class="cls-3" d="M217.35,42.54h1.58V48h0a2.94,2.94,0,0,1,1.13-1.12,3.27,3.27,0,0,1,1.62-.45c1.17,0,3,.72,3,3.73v5.19h-1.58v-5c0-1.4-.52-2.59-2-2.59A2.28,2.28,0,0,0,219,49.31a1.92,1.92,0,0,0-.11.76v5.26h-1.58V42.54Z" transform="translate(0 0.07)"/><path class="cls-3" d="M235.22,50.89a4.26,4.26,0,0,1-4.34,4.63A4.14,4.14,0,0,1,226.71,51c0-2.92,1.91-4.63,4.32-4.63S235.22,48.23,235.22,50.89Zm-6.91.09c0,1.91,1.1,3.35,2.65,3.35s2.65-1.42,2.65-3.38c0-1.48-.74-3.35-2.61-3.35S228.31,49.32,228.31,51Z" transform="translate(0 0.07)"/><path class="cls-3" d="M245.11,50.89a4.26,4.26,0,0,1-4.34,4.63A4.14,4.14,0,0,1,236.59,51c0-2.92,1.91-4.63,4.32-4.63S245.11,48.23,245.11,50.89Zm-6.91.09c0,1.91,1.1,3.35,2.65,3.35s2.65-1.42,2.65-3.38c0-1.48-.74-3.35-2.61-3.35S238.19,49.32,238.19,51Z" transform="translate(0 0.07)"/><path class="cls-3" d="M247.1,42.54h1.58V55.32H247.1V42.54Z" transform="translate(0 0.07)"/></g></g></svg>